<svg width="949" height="165" viewBox="0 0 949 165" fill="none" xmlns="http://www.w3.org/2000/svg">
<path d="M0 160.352L77.5391 12.3047C79.4271 8.72396 82.3568 5.95703 86.3281 4.00391C90.2995 1.98568 94.4336 0.976562 98.7305 0.976562C102.572 0.976562 106.315 1.85547 109.961 3.61328C113.672 5.37109 116.536 8.07292 118.555 11.7187L201.758 160.352H122.559L116.406 144.922H74.2188L68.9453 160.352L0 160.352ZM79.0039 113.965H110.547L95.6055 71.7773L79.0039 113.965ZM336.563 155.762C322.695 161.361 307.689 164.16 291.543 164.16C280.475 164.16 269.733 162.467 259.316 159.082C248.965 155.697 239.655 150.749 231.387 144.238C223.184 137.728 216.641 129.72 211.758 120.215C206.94 110.71 204.531 99.8372 204.531 87.5977C204.531 74.6419 206.81 62.8255 211.367 52.1484C215.99 41.4062 222.533 32.1615 230.996 24.4141C239.46 16.6016 249.486 10.5794 261.074 6.34766C272.663 2.11589 285.488 0 299.551 0C302.155 0 305.443 0.130208 309.414 0.390625C313.451 0.651042 317.617 1.13932 321.914 1.85547C326.211 2.50651 330.085 3.48307 333.535 4.78516V55.1758C329.238 53.5482 324.844 52.7344 320.352 52.7344C313.646 52.7344 307.461 54.3945 301.797 57.7148C296.133 60.9701 291.608 65.3646 288.223 70.8984C284.837 76.4323 283.145 82.5846 283.145 89.3555C283.145 96.0612 284.447 101.302 287.051 105.078C289.655 108.854 293.496 110.742 298.574 110.742C300.592 110.742 303.001 110.417 305.801 109.766C308.6 109.115 312.409 107.487 317.227 104.883C322.109 102.279 328.555 98.0469 336.562 92.1875L336.563 155.762ZM494.609 155.762C480.742 161.361 465.736 164.16 449.59 164.16C438.522 164.16 427.78 162.467 417.363 159.082C407.012 155.697 397.702 150.749 389.434 144.238C381.23 137.728 374.688 129.72 369.805 120.215C364.987 110.71 362.578 99.8372 362.578 87.5977C362.578 74.6419 364.857 62.8255 369.414 52.1484C374.036 41.4062 380.579 32.1615 389.043 24.4141C397.507 16.6016 407.533 10.5794 419.121 6.34766C430.71 2.11589 443.535 0 457.598 0C460.202 0 463.49 0.130208 467.461 0.390625C471.497 0.651042 475.664 1.13932 479.961 1.85547C484.258 2.50651 488.132 3.48307 491.582 4.78516V55.1758C487.285 53.5482 482.891 52.7344 478.398 52.7344C471.693 52.7344 465.508 54.3945 459.844 57.7148C454.18 60.9701 449.655 65.3646 446.27 70.8984C442.884 76.4323 441.191 82.5846 441.191 89.3555C441.191 96.0612 442.493 101.302 445.098 105.078C447.702 108.854 451.543 110.742 456.621 110.742C458.639 110.742 461.048 110.417 463.848 109.766C466.647 109.115 470.456 107.487 475.273 104.883C480.156 102.279 486.602 98.0469 494.609 92.1875V155.762ZM527.656 4.39453L640.059 4.39453V49.3164L588.398 49.3164V62.1094H639.863V100.391H588.398V115.137H643.477V160.352L527.656 160.352V4.39453ZM674.473 108.594C674.863 108.659 676.686 109.245 679.941 110.352C683.262 111.393 687.266 112.598 691.953 113.965C696.641 115.267 701.328 116.439 706.016 117.48C710.768 118.457 714.805 118.945 718.125 118.945C720.99 118.945 723.333 118.522 725.156 117.676C726.979 116.829 727.891 115.267 727.891 112.988C727.891 110.514 726.589 108.268 723.984 106.25C721.38 104.232 718.027 102.148 713.926 100C709.889 97.8516 705.56 95.4102 700.938 92.6758C696.38 89.9414 692.051 86.6536 687.949 82.8125C683.913 78.9714 680.592 74.3815 677.988 69.043C675.384 63.6393 674.082 57.194 674.082 49.707C674.082 40.5273 676.003 32.7799 679.844 26.4648C683.685 20.0846 688.828 14.974 695.273 11.1328C701.784 7.22656 709.076 4.39453 717.148 2.63672C725.286 0.878906 733.62 0 742.148 0C749.375 0 756.211 0.390625 762.656 1.17187C769.102 1.95312 774.538 2.79948 778.965 3.71094C783.457 4.6224 786.289 5.24089 787.461 5.56641V50.3906C787.461 50.3906 786.094 50.0977 783.359 49.5117C780.69 48.9258 777.305 48.2747 773.203 47.5586C769.167 46.8424 764.967 46.1914 760.605 45.6055C756.309 45.0195 752.533 44.7266 749.277 44.7266C746.283 44.7266 744.036 45.2474 742.539 46.2891C741.042 47.3307 740.293 48.5677 740.293 50C740.293 51.1719 740.944 52.474 742.246 53.9062C743.548 55.2734 745.111 56.3477 746.934 57.1289C753.77 60.1237 760.215 63.1836 766.27 66.3086C772.324 69.4336 777.663 73.0469 782.285 77.1484C786.908 81.25 790.521 86.263 793.125 92.1875C795.794 98.0469 797.129 105.241 797.129 113.77C797.129 123.926 794.557 132.78 789.414 140.332C784.336 147.884 776.979 153.743 767.344 157.91C757.773 162.077 746.217 164.16 732.676 164.16C721.022 164.16 711.419 163.607 703.867 162.5C696.315 161.393 690.391 160.156 686.094 158.789C681.797 157.357 678.77 156.087 677.012 154.98C675.319 153.874 674.473 153.32 674.473 153.32V108.594ZM825.684 108.594C826.074 108.659 827.897 109.245 831.152 110.352C834.473 111.393 838.477 112.598 843.164 113.965C847.852 115.267 852.539 116.439 857.227 117.48C861.979 118.457 866.016 118.945 869.336 118.945C872.201 118.945 874.544 118.522 876.367 117.676C878.19 116.829 879.102 115.267 879.102 112.988C879.102 110.514 877.799 108.268 875.195 106.25C872.591 104.232 869.238 102.148 865.137 100C861.1 97.8516 856.771 95.4102 852.148 92.6758C847.591 89.9414 843.262 86.6536 839.16 82.8125C835.124 78.9714 831.803 74.3815 829.199 69.043C826.595 63.6393 825.293 57.194 825.293 49.707C825.293 40.5273 827.214 32.7799 831.055 26.4648C834.896 20.0846 840.039 14.974 846.484 11.1328C852.995 7.22656 860.286 4.39453 868.359 2.63672C876.497 0.878906 884.831 0 893.359 0C900.586 0 907.422 0.390625 913.867 1.17187C920.312 1.95312 925.749 2.79948 930.176 3.71094C934.668 4.6224 937.5 5.24089 938.672 5.56641V50.3906C938.672 50.3906 937.305 50.0977 934.57 49.5117C931.901 48.9258 928.516 48.2747 924.414 47.5586C920.378 46.8424 916.178 46.1914 911.816 45.6055C907.52 45.0195 903.743 44.7266 900.488 44.7266C897.493 44.7266 895.247 45.2474 893.75 46.2891C892.253 47.3307 891.504 48.5677 891.504 50C891.504 51.1719 892.155 52.474 893.457 53.9062C894.759 55.2734 896.322 56.3477 898.145 57.1289C904.98 60.1237 911.426 63.1836 917.48 66.3086C923.535 69.4336 928.874 73.0469 933.496 77.1484C938.118 81.25 941.732 86.263 944.336 92.1875C947.005 98.0469 948.34 105.241 948.34 113.77C948.34 123.926 945.768 132.78 940.625 140.332C935.547 147.884 928.19 153.743 918.555 157.91C908.984 162.077 897.428 164.16 883.887 164.16C872.233 164.16 862.63 163.607 855.078 162.5C847.526 161.393 841.602 160.156 837.305 158.789C833.008 157.357 829.98 156.087 828.223 154.98C826.53 153.874 825.684 153.32 825.684 153.32V108.594Z" fill="#FF6600"/>
</svg>
