<svg width="1011" height="1344" viewBox="0 0 1011 1344" fill="none" xmlns="http://www.w3.org/2000/svg">
<path opacity="0.992157" d="M707.074 -95H790.888L798.283 -93.3566H808.965L809.787 -92.5349L830.33 -91.7132L831.151 -90.8915L843.477 -90.0698L858.268 -86.783L885.384 -83.4962L888.671 -81.8528L900.174 -80.2094L903.461 -78.566H907.57L944.546 -67.8838L961.802 -64.597L968.376 -62.1319L975.771 -61.3102L987.275 -57.2017L1016.03 -49.8064L1030 -44.8762L1039.86 -39.946L1053.01 -35.8375L1066.98 -28.4421L1083.41 -21.8685L1145.04 15.9298L1198.04 63.1776C1197.66 64.4376 1198.07 64.8484 1199.27 64.4102L1216.53 82.4876L1234.61 67.697L1258.44 53.728L1287.2 43.8676L1291.3 43.0459H1310.2L1321.71 46.3327L1334.03 52.0846C1343.24 57.6722 1351.32 64.3828 1358.27 72.2163C1367.42 82.2411 1374.27 94.5666 1378.82 109.193L1379.64 118.232L1381.28 122.34V146.991L1375.53 169.999L1394.84 170.41L1411.27 175.34L1427.71 182.735C1433.84 186.46 1439.18 190.98 1443.73 196.293L1451.95 207.797L1458.52 223.409L1460.99 236.557V259.564L1460.16 260.386V267.781L1459.34 268.603L1457.7 282.572L1452.77 298.184L1442.91 319.549L1432.64 331.463L1428.12 335.161L1442.09 349.952L1464.27 379.533L1467.56 386.106L1485.64 412.401C1487.55 418.153 1490.29 423.083 1493.85 427.192L1504.54 449.377L1513.57 474.85L1516.86 480.602L1522.61 497.858L1539.87 540.586L1543.98 557.02L1545.62 568.524L1548.09 575.098V580.028L1553.02 604.679L1553.84 619.47L1558.77 642.477V649.873L1559.59 650.694V685.206L1558.77 686.028V701.64L1557.13 709.857V719.717L1555.48 725.469L1553.84 746.012L1549.73 764.911L1548.91 781.345L1548.09 782.167C1549.46 782.988 1549.73 784.906 1548.91 787.919L1548.09 788.74L1547.26 800.244L1544.8 807.64V813.391L1542.33 822.43V827.36L1539.05 846.26L1534.12 862.694L1516.04 902.135L1515.22 906.244L1506.18 921.856L1489.75 941.577L1469.2 973.623L1456.47 988.003L1451.13 991.701L1443.32 1001.15C1438.39 1006.08 1430.99 1008.55 1421.13 1008.55C1415.49 1006.24 1410.97 1002.82 1407.58 998.274L1405.11 993.344V986.771L1409.22 976.91L1412.92 973.212L1429.76 958.011C1439.62 945.959 1448.39 932.812 1456.06 918.569C1462.68 912.598 1468.44 905.751 1473.31 898.027L1481.53 882.414L1483.17 876.662L1495.5 850.368L1499.61 836.399L1503.71 806.818L1507 796.136L1507.82 782.167L1508.64 781.345V767.376L1516.04 725.469V723.826V713.966L1517.68 706.57L1518.51 679.454L1519.33 678.632V676.989L1518.51 669.594L1519.33 667.128V656.446L1518.51 655.625L1517.68 641.656L1516.04 636.726V630.152L1514.4 626.043V621.113L1512.75 615.361L1511.93 602.214L1510.29 598.106L1509.47 587.423L1507 580.028L1501.25 550.447L1487.28 515.935L1485.64 509.362L1478.24 492.928L1468.38 464.99L1456.88 441.16C1452.77 436.23 1449.48 430.478 1447.02 423.905L1442.09 418.153L1428.94 396.789L1404.29 364.742L1394.02 354.471L1379.64 343.378L1376.35 335.161V326.944C1377.94 322.507 1380.54 319.083 1384.16 316.673L1393.2 312.564L1406.75 302.293L1412.51 293.254L1419.9 271.068V264.495L1421.54 257.099V242.309L1419.9 234.092L1417.44 229.161L1408.81 218.89L1401.41 214.782L1396.48 213.96L1388.27 209.851H1366.9L1366.08 210.673L1352.93 211.495L1336.5 216.425H1328.28C1323.19 214.946 1319.49 212.07 1317.19 207.797L1315.54 205.332L1313.9 194.65C1314.94 189.939 1317 186.241 1320.06 183.557L1329.51 176.572L1335.27 166.712L1336.91 159.317L1339.37 154.387L1341.84 144.526L1342.66 135.487L1341.84 134.666L1341.02 123.162L1338.55 115.767C1335.16 107.933 1330.64 101.222 1324.99 95.6348C1319.84 90.9237 1313.82 87.0891 1306.92 84.131C1303.14 82.1589 1297.93 81.6111 1291.3 82.4876L1265.83 92.348C1259.09 96.2922 1253.2 101.085 1248.17 106.728L1246.52 109.193V114.945L1244.88 120.697L1240.36 126.038L1230.5 130.968H1223.1L1216.53 134.255H1208.31C1203.38 132.338 1199.41 129.462 1196.4 125.627C1194.15 122.943 1192.78 119.382 1192.29 114.945L1174.62 95.6348C1173.42 96.0731 1173.01 95.6622 1173.39 94.4023L1146.68 70.9838L1129.43 53.728L1113.82 43.0459L1101.49 36.4723L1069.44 15.9298L1043.15 3.60423L1012.75 -8.7213L1007 -9.543L980.701 -18.5817L973.306 -19.4034L936.329 -28.4421L933.042 -30.0856H929.756L924.004 -32.5507L908.391 -35.8375L889.492 -41.5894L870.593 -44.8762H864.841L864.02 -45.6979L848.407 -47.3413L843.477 -48.9847H838.547L826.221 -51.4498L803.214 -52.2715L802.392 -53.0932L784.314 -53.9149L783.493 -54.7366H712.826L712.005 -53.9149H702.966L702.144 -53.0932L688.997 -52.2715L688.175 -51.4498L665.168 -49.8064L628.191 -42.4111L588.749 -30.0856L569.029 -21.8685L562.455 -20.2251L533.695 -6.2562L517.261 -0.504283L497.54 8.53444L455.634 34.8289L437.145 50.8521L417.425 75.914H415.781V77.5574C414.302 76.9548 413.754 77.3657 414.138 78.7899L409.208 87.007L405.51 90.7046C402.771 93.7175 398.115 94.8131 391.541 93.9914C385.679 91.9098 381.16 88.486 377.983 83.7202C375.463 80.5429 374.641 75.6127 375.518 68.9295C378.64 58.0831 384.255 49.7291 392.363 43.8676L395.239 41.8134C402.743 29.3235 411.919 18.5044 422.766 9.35614L430.983 4.42593L446.595 -7.8996L462.207 -16.1166L477.82 -26.7987L500.006 -37.4809L514.796 -42.4111L534.517 -52.2715L548.486 -57.2017L553.416 -60.4885C561.085 -62.1319 567.933 -64.597 573.959 -67.8838L578.889 -68.7055L589.571 -73.6358L619.974 -82.6745C625.178 -82.6745 629.561 -83.4962 633.121 -85.1396H638.052L661.059 -90.0698H666.811L674.206 -91.7132H682.423L683.245 -92.5349H693.927L707.074 -95Z" fill="#FF6600"/>
<path opacity="0.992157" d="M309.371 236.967C314.575 236.146 318.683 236.42 321.696 237.789L328.681 243.952L331.968 253.812V261.208L330.324 266.138L323.34 273.122L314.712 280.107L295.813 308.045L294.169 313.796L276.914 347.486L267.053 378.711L266.232 386.106L263.766 393.502L262.945 405.827L261.301 411.579V469.92L266.232 492.106L272.805 511.005L278.557 520.865L301.976 545.927L315.123 557.431L321.696 561.54L349.634 574.687L362.782 578.795L369.355 579.617L375.107 582.082L407.153 583.726L420.301 579.617L429.75 574.276L419.89 566.059C412.659 557.951 407.455 547.817 404.277 535.656C405.099 532.643 404.825 530.726 403.456 529.904V506.075L409.208 481.424C412.604 473.59 417.397 467.153 423.587 462.114L435.913 453.897L448.239 448.145L458.099 444.858L467.959 444.036L468.781 444.858H479.463L490.145 448.145C498.801 452.363 506.059 457.978 511.92 464.99L519.316 475.672L523.424 485.532L525.068 494.571V506.896L524.246 507.718V514.292L522.603 522.509L518.494 534.834L511.92 548.803L501.238 564.005L509.044 566.47H513.153L518.905 568.113L543.556 568.935L544.378 568.113H554.238L563.277 566.47H573.137L593.68 559.896L606.416 558.253L598.199 537.299C598.199 532.095 597.377 527.713 595.734 524.152V505.253C597.213 504.322 597.487 502.131 596.556 498.679L603.129 483.067C607.895 474.686 613.784 467.427 620.796 461.292L632.3 453.897L642.16 451.432H647.912H651.199H661.881L670.92 453.897C680.89 458.443 689.244 464.606 695.982 472.385C701.241 478.904 704.253 487.669 705.02 498.679L703.377 504.431V512.648L701.734 520.865L697.625 534.834L690.23 550.447L681.191 560.307L689.819 564.826L698.036 567.291L709.54 568.113L724.33 572.222H739.121L747.338 570.578H781.028L781.849 569.757H788.423L804.857 566.47L816.361 565.648L831.973 560.718L839.369 559.896L842.655 558.253L851.694 556.609L899.353 539.354L912.5 532.78L919.074 531.137L931.399 522.92L940.438 518.811L964.267 499.09L971.663 496.625H974.949C980.154 497.447 984.125 499.501 986.864 502.788C990.699 506.896 992.616 512.922 992.616 520.865C991.082 527.549 987.658 532.342 982.345 535.245L974.128 540.175L957.694 554.144L947.833 558.253L930.578 568.935L920.717 572.222L913.322 576.33L894.423 582.082L876.345 590.299L852.516 596.873L847.586 599.338H841.834L827.043 604.268H822.935L812.252 606.733H805.679L785.136 610.842H748.16L744.051 612.485H719.4L718.578 611.663L709.54 610.842L702.966 608.377H695.571L678.315 604.268L659.416 594.408C651.473 593.038 644.625 590.573 638.873 587.012L629.013 592.764L615.044 597.694L604.362 598.516L583.819 605.09L574.781 605.911L573.959 606.733H561.633L560.812 607.555L547.664 608.377L541.091 610.02H532.052L524.657 608.377H512.331C509.811 606.788 506.251 606.24 501.649 606.733L468.781 595.229L433.448 616.594L419.479 622.346L412.084 623.989H383.324C379.982 622.126 375.326 621.579 369.355 622.346L346.347 616.594L315.123 603.446L292.937 591.121L266.232 567.702L252.263 552.09L241.58 536.478L233.363 520.044L232.542 514.292L229.255 506.896L221.86 473.207V408.292L222.681 407.47L223.503 395.145L226.79 378.711L239.937 334.339L254.728 306.401L262.945 287.502L276.914 266.138L288.417 251.347L297.867 241.898L309.371 236.967ZM462.618 485.121L449.471 490.873L445.363 497.447L442.897 509.772V526.206L447.006 536.067C451.388 540.997 457.14 544.832 464.262 547.571L479.052 528.672L484.804 513.881C484.256 510.594 484.53 508.677 485.626 508.129L484.804 506.486C484.256 503.747 484.53 502.103 485.626 501.555L484.804 495.803L473.3 485.121H462.618ZM645.858 491.695C640.928 494.982 637.367 499.638 635.176 505.664L635.997 526.206C637.093 531.684 639.01 536.067 641.749 539.354H644.214L654.075 533.602L659.827 526.206L663.935 508.951L664.757 498.269L657.362 492.517L645.858 491.695Z" fill="#FF6600"/>
<path opacity="0.992157" d="M172.968 241.897L181.185 242.719C185.458 244.527 188.882 247.129 191.457 250.525L194.743 258.742V265.316C193.045 271.068 189.895 275.313 185.294 278.052L172.147 285.448L155.302 300.649L141.333 318.727L120.79 349.13L106 378.711L96.1391 393.501L82.9919 422.261L64.9144 476.493L63.271 478.958L59.9842 495.392L50.9455 521.687L47.6587 537.299V541.408L44.3719 552.09V558.664L43.5502 559.485L41.9068 580.028L41.0851 580.849V625.221L39.4417 630.152V653.981L41.0851 659.733L41.9068 679.454L43.5502 685.206L47.6587 718.074L59.1625 757.515L73.9532 792.027L102.713 831.058H104.356C103.754 832.537 104.164 833.085 105.589 832.701L113.806 837.631L118.325 842.151L121.612 849.546V858.585C119.585 864.775 116.161 869.568 111.341 872.964C107.889 876.087 102.411 877.183 94.9066 876.251L84.6353 869.267L80.1159 863.926L72.3098 857.763L45.1936 821.608L40.2634 813.391L33.6898 800.244L25.4728 777.236L21.3642 769.019L15.6123 751.763L13.9689 741.903L9.03872 726.291L8.21702 716.43L4.93021 701.64L4.10851 683.562L2.46511 678.632V672.058L0.821702 663.841V662.198V655.624L0 654.803V630.973L1.6434 621.935V577.563L3.28681 570.989V561.95L4.93021 556.198V550.446L6.57362 546.338L11.5038 517.578L18.8991 497.036L23.8294 474.028L44.3719 413.222L59.9842 378.711L65.7362 370.494L88.7438 326.944L95.3174 319.548L115.038 289.145L131.061 270.657L159.821 246.828C163.382 244.363 167.764 242.719 172.968 241.897Z" fill="#FF6600"/>
<path opacity="0.992157" d="M865.663 640.423H905.105L905.927 641.245C910.035 640.423 913.048 640.697 914.965 642.066L915.787 641.245H925.648L926.469 642.066H936.33C942.246 644.367 949.093 645.737 956.872 646.175L966.733 648.64L976.593 653.57L1011.1 676.578L1028.77 693.423L1048.49 725.469L1058.35 746.833L1066.57 781.345V787.097L1068.21 792.027C1067.39 796.135 1067.67 799.148 1069.03 801.066L1068.21 804.352L1069.03 805.996L1068.21 808.461L1069.03 809.283V822.43L1069.86 823.252L1070.68 867.623L1069.86 868.445L1069.03 880.771L1064.93 894.74L1048.49 932.538L1030.41 956.367L1017.68 969.104L1002.89 980.607L989.74 988.003C987.22 989.591 983.66 990.139 979.058 989.646L952.764 998.685L927.291 999.507L926.469 998.685H914.965L903.462 996.22L878.811 987.181C863.472 979.512 850.462 969.514 839.78 957.189L834.028 949.794L825.811 933.36L820.059 911.174L819.237 898.848L817.594 892.274V880.771L816.772 879.949V819.965L819.237 810.926V806.817L820.881 804.352L827.454 782.988L846.353 748.477L854.159 740.67C857.391 737.877 862.048 736.507 868.128 736.562C868.95 737.931 870.867 738.205 873.88 737.384L877.167 739.027L882.508 744.368L886.617 753.407V763.267C884.59 768.91 881.303 773.292 876.756 776.415L866.896 793.67L857.857 815.856L855.392 825.717V879.127L856.214 879.949V890.631L857.857 898.026V904.6L860.322 916.104L866.074 927.608L871.415 933.77C876.838 939.577 883.138 944.507 890.314 948.561L907.57 955.956L917.431 959.243H921.539L924.826 958.422L925.648 959.243L935.508 960.065L936.33 959.243L945.368 958.422L966.733 951.026H970.841L977.415 948.561C987.33 942.042 995.958 934.236 1003.3 925.143L1013.16 912.817L1027.95 879.949L1032.06 861.872V853.655L1031.24 852.833L1030.41 799.422L1023.02 762.446L1018.09 750.12C1013.98 745.19 1010.69 739.438 1008.23 732.864L1000.01 719.717L990.562 710.268L970.841 697.942L965.089 693.012L951.942 685.616L939.616 683.973L932.221 681.508H913.322L912.5 680.686H899.353L898.531 679.865L896.888 680.686L894.423 679.865H892.779L885.384 680.686L883.741 679.865H882.097H873.88L863.198 683.151H859.09L827.865 694.655C815.43 701.393 804.611 709.747 795.408 719.717C788.505 727.879 782.754 737.192 778.152 747.655L773.633 752.174L767.059 754.639H761.307L751.447 751.353L746.927 746.833L742.819 735.329V728.756C750.269 711.007 760.54 696.079 773.633 683.973L790.888 670.004L813.074 656.857L841.834 646.175L865.663 640.423Z" fill="#FF6600"/>
<path opacity="0.992157" d="M377.572 663.431L378.394 664.253H386.611L387.433 665.074H396.471L397.293 665.896L407.975 666.718L446.595 679.865L467.138 692.19L483.161 704.516C482.558 705.995 482.969 706.543 484.394 706.159L500.417 723.826L509.455 736.152L518.494 755.872L525.889 767.376L534.928 786.275L539.037 802.709L539.858 816.678L542.324 827.36V847.903L541.502 848.725V857.763L540.68 858.585V868.446L537.393 887.345L536.572 902.135L534.106 909.531L533.285 916.926L525.889 939.112L512.742 962.941L490.967 985.538L475.355 997.864L447.417 1011.01L421.122 1017.58H400.58L375.929 1011.01C368.643 1008.44 362.48 1004.74 357.441 999.918L341.828 980.197L326.216 955.546L321.286 945.686L316.355 931.717L311.425 905.422V903.779V897.205L310.604 896.383V861.872L314.712 838.043L327.038 807.64L345.937 779.702L359.495 765.322L369.355 761.213H377.572C383.653 762.528 388.172 765.404 391.13 769.841L393.595 774.772L394.417 782.167C393.102 788.795 390.226 793.862 385.789 797.368L377.161 804.353L364.014 822.43L354.975 842.973L350.867 862.694V891.453L351.689 892.275L352.51 905.422L356.619 925.143L365.658 942.399L382.092 967.05L388.254 974.034L403.867 978.964H416.192L430.161 975.678L451.525 965.817C461.715 959.298 470.616 951.492 478.231 942.399L488.091 927.608L495.487 902.135L497.13 893.918L497.952 876.663L499.595 870.911L500.417 856.942L501.238 856.12L502.06 834.756L501.238 833.934L500.417 819.143L498.773 814.213V807.64L496.308 799.423L470.835 750.942L449.06 728.345L434.27 716.842L408.797 706.981L400.58 704.516L378.394 702.873L377.572 702.051H368.534L366.068 702.873L355.386 703.694L342.239 708.625H339.774L320.875 719.307L303.208 733.686L290.061 755.872L285.131 773.128V776.415C286.5 777.237 286.774 779.154 285.953 782.167C284.364 790.165 280.666 796.054 274.86 799.833C272.614 801.97 269.053 802.792 264.177 802.299L257.604 800.655L248.154 794.492L244.867 784.632V773.128L245.689 772.306L246.511 760.803L253.906 739.438L266.232 717.252L280.611 700.407L302.797 683.973L311.014 680.687L320.875 674.113L342.239 666.718L357.03 665.074L357.851 664.253H376.751L377.572 663.431Z" fill="#FF6600"/>
<path opacity="0.992157" d="M223.914 878.717C230.816 878.936 235.609 881.264 238.293 885.701L243.224 895.562V905.422L244.045 906.244L244.867 921.856L246.51 928.43C245.689 934.729 245.963 939.933 247.332 944.042L246.51 944.864L245.689 968.693L244.867 969.515L244.045 981.84V983.484V990.057L244.867 990.879V992.522V1015.53L247.332 1029.5L258.014 1060.72L269.518 1085.37L277.735 1095.24L285.13 1109.2L293.347 1119.06L298.278 1129.75L346.347 1189.32L362.781 1202.47L375.929 1209.04L394.006 1221.37L437.556 1244.37L471.246 1256.7L478.641 1260.81L490.967 1264.92L510.688 1273.96L516.44 1274.78L525.478 1278.89L541.091 1282.99L564.098 1291.21L590.393 1296.96H602.718L603.54 1297.78H613.4L614.222 1298.61L615.044 1297.78H622.439L623.261 1298.61H632.3L633.121 1299.43H637.23L642.982 1301.07H650.377L656.951 1302.71L659.416 1301.89L662.702 1302.71H688.997L689.819 1301.89H712.826L720.222 1300.25H733.369L739.121 1298.61H740.764H743.229L753.09 1294.5L758.842 1293.68L774.454 1287.1L815.539 1277.24L821.291 1273.96L830.33 1272.31L853.337 1264.09L872.236 1253.41L876.345 1252.59L893.601 1243.55L903.461 1241.09C907.679 1237.36 912.883 1234.62 919.073 1232.87L953.996 1204.52L958.104 1198.36C959.583 1198.96 960.131 1198.55 959.748 1197.13L974.538 1183.98L986.453 1171.24L989.329 1169.19L1007.41 1147L1020.96 1133.44L1050.96 1108.38L1069.86 1086.2L1084.65 1065.65L1088.75 1057.44L1094.92 1051.27C1097.55 1048.7 1101.93 1047.88 1108.06 1048.81C1114.26 1050.01 1119.05 1052.62 1122.44 1056.62L1124.91 1062.37V1076.34C1122.44 1082.91 1119.16 1088.66 1115.05 1093.59L1086.29 1129.34C1084.81 1128.73 1084.26 1129.14 1084.65 1130.57L1062.87 1157.27L1052.19 1164.67C1038.38 1179.51 1023.18 1192.66 1006.58 1204.11C1007.19 1205.59 1006.78 1206.14 1005.35 1205.75L988.918 1223.83L983.577 1227.53L973.306 1239.44L931.399 1271.49L914.965 1279.71L909.213 1280.53L898.531 1285.46L883.74 1293.68L875.523 1296.14L865.663 1302.71L860.733 1303.54L850.051 1308.47L844.299 1309.29L821.291 1317.51L813.896 1318.33L796.64 1324.08L788.423 1324.9L765.415 1333.94L759.663 1334.76L753.09 1338.05C749.967 1337.66 747.776 1338.21 746.516 1339.69H739.121L738.299 1340.51L735.834 1339.69L733.369 1340.51L718.578 1341.33L717.757 1342.16L669.276 1343.8L668.454 1342.98L645.447 1342.16L633.943 1339.69L610.935 1338.05L609.292 1338.87L600.253 1337.23H585.463C584.805 1336.02 583.162 1335.75 580.532 1336.4L576.424 1334.76L564.098 1333.12L549.308 1328.19L543.556 1327.37L526.3 1320.79L510.688 1316.68L499.184 1311.75L490.967 1310.11L474.533 1301.89L429.339 1284.64L387.432 1264.09L355.386 1243.55L347.169 1240.27L332.378 1229.58L314.712 1213.56L266.231 1152.75L260.479 1141.25L249.797 1128.1L246.51 1119.06L234.185 1103.45L226.79 1086.2L222.681 1080.44L217.751 1062.37L213.642 1054.97L207.89 1034.43V1030.32L206.247 1025.39L205.425 987.592C204.056 986.77 203.782 984.853 204.604 981.84L206.247 974.445V958.011L207.069 957.189C206.302 952.314 206.576 948.479 207.89 945.685L207.069 944.864V930.895L205.425 925.143L204.604 909.53L203.782 908.709V898.027C205.151 892.275 207.754 887.755 211.588 884.469L219.805 879.538L223.914 878.717Z" fill="#FF6600"/>
<path opacity="0.992157" d="M740.764 1036.48H750.625L751.446 1037.3H758.842L759.664 1038.13L768.702 1038.95C774.564 1041.03 779.083 1044.45 782.26 1049.22C785.054 1053 785.876 1058.75 784.725 1066.48L773.222 1110.03L765.826 1129.75L762.539 1135.5L756.788 1152.75L737.067 1188.09L718.989 1213.56L712.005 1220.54L700.501 1224.65H690.641L678.315 1218.08L656.54 1202.47L634.354 1175.76L615.455 1148.65L606.827 1140.02L598.199 1133.03L566.974 1091.13C563.852 1087.68 562.756 1082.2 563.688 1074.69C565.714 1069.87 568.59 1065.9 572.315 1062.78L584.641 1052.92L589.571 1051.27C593.241 1051.66 595.98 1051.11 597.788 1049.63H604.362L619.152 1045.52H640.517L643.804 1044.7L645.447 1045.52L654.486 1043.06L676.672 1042.24L694.749 1038.95H725.152L725.974 1038.13H735.012L740.764 1036.48ZM741.175 1077.57L740.354 1078.39H732.136L731.315 1079.21H700.912L684.478 1082.5L661.47 1083.32L650.788 1085.79H625.315L615.455 1088.25L621.207 1096.47L623.672 1102.22L631.067 1107.97L631.889 1110.44L641.749 1118.65C641.201 1119.75 641.749 1120.02 643.393 1119.48L645.858 1125.23L654.075 1134.27L663.114 1149.06L673.796 1161.38L674.617 1163.85L687.765 1176.17L695.16 1181.1L705.842 1166.31L720.633 1139.2L735.423 1103.04L737.067 1093.18L741.997 1080.03L741.175 1077.57Z" fill="#FF6600"/>
</svg>
