<svg width="1080" height="1162" viewBox="0 0 1080 1162" fill="none" xmlns="http://www.w3.org/2000/svg">
<mask id="path-1-inside-1_111_724" fill="white">
<path d="M9.62509e-05 52.417C28.7015 51.8651 51.8644 28.7014 52.4161 4.58235e-06L1025.49 8.96509e-05C1026.05 29.0502 1049.77 52.4278 1078.95 52.4278C1079.3 52.4278 1079.65 52.4238 1080 52.4171L1080 1153.4L0 1153.4L9.62509e-05 52.417Z"/>
</mask>
<path d="M9.62509e-05 52.417C28.7015 51.8651 51.8644 28.7014 52.4161 4.58235e-06L1025.49 8.96509e-05C1026.05 29.0502 1049.77 52.4278 1078.95 52.4278C1079.3 52.4278 1079.65 52.4238 1080 52.4171L1080 1153.4L0 1153.4L9.62509e-05 52.417Z" fill="#FFF1DF"/>
<path d="M9.62509e-05 52.417L-0.461327 28.4214L-23.9999 28.874L-23.9999 52.417L9.62509e-05 52.417ZM52.4161 4.58235e-06L52.4161 -24L28.873 -24L28.4205 -0.461301L52.4161 4.58235e-06ZM1025.49 8.96509e-05L1049.48 -0.461212L1049.03 -23.9999L1025.49 -23.9999L1025.49 8.96509e-05ZM1078.95 52.4278L1078.95 76.4278L1078.95 76.4278L1078.95 52.4278ZM1080 52.4171L1104 52.4171L1104 27.9514L1079.54 28.4215L1080 52.4171ZM1080 1153.4L1080 1177.4L1104 1177.4L1104 1153.4L1080 1153.4ZM0 1153.4L-24 1153.4L-24 1177.4L-2.09815e-06 1177.4L0 1153.4ZM9.62509e-05 52.417L0.46152 76.4126C42.0569 75.6128 75.612 42.0558 76.4117 0.46131L52.4161 4.58235e-06L28.4205 -0.461301C28.1167 15.347 15.3462 28.1174 -0.461327 28.4214L9.62509e-05 52.417ZM52.4161 4.58235e-06L52.4161 24L1025.49 24.0001L1025.49 8.96509e-05L1025.49 -23.9999L52.4161 -24L52.4161 4.58235e-06ZM1025.49 8.96509e-05L1001.49 0.461391C1002.3 42.5582 1036.67 76.4278 1078.95 76.4278L1078.95 52.4278L1078.95 28.4278C1062.87 28.4278 1049.79 15.5421 1049.48 -0.461212L1025.49 8.96509e-05ZM1078.95 52.4278L1078.95 76.4278C1079.49 76.4278 1079.99 76.4217 1080.46 76.4127L1080 52.4171L1079.54 28.4215C1079.31 28.4259 1079.12 28.4278 1078.95 28.4278L1078.95 52.4278ZM1080 52.4171L1056 52.4171L1056 1153.4L1080 1153.4L1104 1153.4L1104 52.4171L1080 52.4171ZM1080 1153.4L1080 1129.4L2.09815e-06 1129.4L0 1153.4L-2.09815e-06 1177.4L1080 1177.4L1080 1153.4ZM0 1153.4L24 1153.4L24.0001 52.417L9.62509e-05 52.417L-23.9999 52.417L-24 1153.4L0 1153.4Z" fill="#FF6600" mask="url(#path-1-inside-1_111_724)"/>
<line x1="1026.57" y1="1157.19" x2="72.6006" y2="1157.19" stroke="#FF6600" stroke-width="8.38835" stroke-dasharray="33.55 33.55"/>
</svg>
