<svg width="864" height="1439" viewBox="0 0 864 1439" fill="none" xmlns="http://www.w3.org/2000/svg">
<path opacity="0.992157" d="M707.074 0H790.888L798.283 1.6434H808.965L809.787 2.46511L830.33 3.28681L831.151 4.10851L843.477 4.93021L858.268 8.21702L885.384 11.5038L888.671 13.1472L900.174 14.7906L903.461 16.434H907.57L944.546 27.1162L961.802 30.403L968.376 32.8681L975.771 33.6898L987.275 37.7983L1016.03 45.1936L1030 50.1238L1039.86 55.054L1053.01 59.1625L1066.98 66.5579L1083.41 73.1315L1145.04 110.93L1198.04 158.178C1197.66 159.438 1198.07 159.848 1199.27 159.41L1216.53 177.488L1234.61 162.697L1258.44 148.728L1287.2 138.868L1291.3 138.046H1310.2L1321.71 141.333L1334.03 147.085C1343.24 152.672 1351.32 159.383 1358.27 167.216C1367.42 177.241 1374.27 189.567 1378.82 204.193L1379.64 213.232L1381.28 217.34V241.991L1375.53 264.999L1394.84 265.41L1411.27 270.34L1427.71 277.735C1433.84 281.46 1439.18 285.98 1443.73 291.293L1451.95 302.797L1458.52 318.409L1460.99 331.557V354.564L1460.16 355.386V362.781L1459.34 363.603L1457.7 377.572L1452.77 393.184L1442.91 414.549L1432.64 426.463L1428.12 430.161L1442.09 444.952L1464.27 474.533L1467.56 481.106L1485.64 507.401C1487.55 513.153 1490.29 518.083 1493.85 522.192L1504.54 544.377L1513.57 569.85L1516.86 575.602L1522.61 592.858L1539.87 635.586L1543.98 652.02L1545.62 663.524L1548.09 670.098V675.028L1553.02 699.679L1553.84 714.47L1558.77 737.477V744.873L1559.59 745.694V780.206L1558.77 781.028V796.64L1557.13 804.857V814.717L1555.48 820.469L1553.84 841.012L1549.73 859.911L1548.91 876.345L1548.09 877.167C1549.46 877.988 1549.73 879.906 1548.91 882.919L1548.09 883.74L1547.26 895.244L1544.8 902.64V908.391L1542.33 917.43V922.36L1539.05 941.26L1534.12 957.694L1516.04 997.135L1515.22 1001.24L1506.18 1016.86L1489.75 1036.58L1469.2 1068.62L1456.47 1083L1451.13 1086.7L1443.32 1096.15C1438.39 1101.08 1430.99 1103.55 1421.13 1103.55C1415.49 1101.24 1410.97 1097.82 1407.58 1093.27L1405.11 1088.34V1081.77L1409.22 1071.91L1412.92 1068.21L1429.76 1053.01C1439.62 1040.96 1448.39 1027.81 1456.06 1013.57C1462.68 1007.6 1468.44 1000.75 1473.31 993.027L1481.53 977.414L1483.17 971.662L1495.5 945.368L1499.61 931.399L1503.71 901.818L1507 891.136L1507.82 877.167L1508.64 876.345V862.376L1516.04 820.469V818.826V808.966L1517.68 801.57L1518.51 774.454L1519.33 773.632V771.989L1518.51 764.594L1519.33 762.128V751.446L1518.51 750.625L1517.68 736.656L1516.04 731.726V725.152L1514.4 721.043V716.113L1512.75 710.361L1511.93 697.214L1510.29 693.106L1509.47 682.423L1507 675.028L1501.25 645.447L1487.28 610.935L1485.64 604.362L1478.24 587.928L1468.38 559.99L1456.88 536.16C1452.77 531.23 1449.48 525.478 1447.02 518.905L1442.09 513.153L1428.94 491.789L1404.29 459.742L1394.02 449.471L1379.64 438.378L1376.35 430.161V421.944C1377.94 417.507 1380.54 414.083 1384.16 411.673L1393.2 407.564L1406.75 397.293L1412.51 388.254L1419.9 366.068V359.495L1421.54 352.099V337.309L1419.9 329.092L1417.44 324.161L1408.81 313.89L1401.41 309.782L1396.48 308.96L1388.27 304.851H1366.9L1366.08 305.673L1352.93 306.495L1336.5 311.425H1328.28C1323.19 309.946 1319.49 307.07 1317.19 302.797L1315.54 300.332L1313.9 289.65C1314.94 284.939 1317 281.241 1320.06 278.557L1329.51 271.572L1335.27 261.712L1336.91 254.317L1339.37 249.387L1341.84 239.526L1342.66 230.487L1341.84 229.666L1341.02 218.162L1338.55 210.767C1335.16 202.933 1330.64 196.222 1324.99 190.635C1319.84 185.924 1313.82 182.089 1306.92 179.131C1303.14 177.159 1297.93 176.611 1291.3 177.488L1265.83 187.348C1259.09 191.292 1253.2 196.085 1248.17 201.728L1246.52 204.193V209.945L1244.88 215.697L1240.36 221.038L1230.5 225.968H1223.1L1216.53 229.255H1208.31C1203.38 227.338 1199.41 224.462 1196.4 220.627C1194.15 217.943 1192.78 214.382 1192.29 209.945L1174.62 190.635C1173.42 191.073 1173.01 190.662 1173.39 189.402L1146.68 165.984L1129.43 148.728L1113.82 138.046L1101.49 131.472L1069.44 110.93L1043.15 98.6042L1012.75 86.2787L1007 85.457L980.701 76.4183L973.306 75.5966L936.329 66.5579L933.042 64.9144H929.756L924.004 62.4493L908.391 59.1625L889.492 53.4106L870.593 50.1238H864.841L864.02 49.3021L848.407 47.6587L843.477 46.0153H838.547L826.221 43.5502L803.214 42.7285L802.392 41.9068L784.314 41.0851L783.493 40.2634H712.826L712.005 41.0851H702.966L702.144 41.9068L688.997 42.7285L688.175 43.5502L665.168 45.1936L628.191 52.5889L588.749 64.9144L569.029 73.1315L562.455 74.7749L533.695 88.7438L517.261 94.4957L497.54 103.534L455.634 129.829L437.145 145.852L417.425 170.914H415.781V172.557C414.302 171.955 413.754 172.366 414.138 173.79L409.208 182.007L405.51 185.705C402.771 188.718 398.115 189.813 391.541 188.991C385.679 186.91 381.16 183.486 377.983 178.72C375.463 175.543 374.641 170.613 375.518 163.93C378.64 153.083 384.255 144.729 392.363 138.868L395.239 136.813C402.743 124.323 411.919 113.504 422.766 104.356L430.983 99.4259L446.595 87.1004L462.207 78.8834L477.82 68.2013L500.006 57.5191L514.796 52.5889L534.517 42.7285L548.486 37.7983L553.416 34.5115C561.085 32.8681 567.933 30.403 573.959 27.1162L578.889 26.2945L589.571 21.3642L619.974 12.3255C625.178 12.3255 629.561 11.5038 633.121 9.86042H638.052L661.059 4.93021H666.811L674.206 3.28681H682.423L683.245 2.46511H693.927L707.074 0Z" fill="#FF6600"/>
<path opacity="0.992157" d="M309.371 331.967C314.575 331.146 318.683 331.42 321.696 332.789L328.681 338.952L331.968 348.812V356.208L330.324 361.138L323.34 368.122L314.712 375.107L295.813 403.045L294.169 408.796L276.914 442.486L267.053 473.711L266.232 481.106L263.766 488.502L262.945 500.827L261.301 506.579V564.92L266.232 587.106L272.805 606.005L278.557 615.865L301.976 640.927L315.123 652.431L321.696 656.54L349.634 669.687L362.782 673.795L369.355 674.617L375.107 677.082L407.153 678.726L420.301 674.617L429.75 669.276L419.89 661.059C412.659 652.951 407.455 642.817 404.277 630.656C405.099 627.643 404.825 625.726 403.456 624.904V601.075L409.208 576.424C412.604 568.59 417.397 562.153 423.587 557.114L435.913 548.897L448.239 543.145L458.099 539.858L467.959 539.036L468.781 539.858H479.463L490.145 543.145C498.801 547.363 506.059 552.978 511.92 559.99L519.316 570.672L523.424 580.532L525.068 589.571V601.896L524.246 602.718V609.292L522.603 617.509L518.494 629.834L511.92 643.803L501.238 659.005L509.044 661.47H513.153L518.905 663.113L543.556 663.935L544.378 663.113H554.238L563.277 661.47H573.137L593.68 654.896L606.416 653.253L598.199 632.299C598.199 627.095 597.377 622.713 595.734 619.152V600.253C597.213 599.322 597.487 597.131 596.556 593.679L603.129 578.067C607.895 569.686 613.784 562.427 620.796 556.292L632.3 548.897L642.16 546.432H647.912H651.199H661.881L670.92 548.897C680.89 553.443 689.244 559.606 695.982 567.385C701.241 573.904 704.253 582.669 705.02 593.679L703.377 599.431V607.648L701.734 615.865L697.625 629.834L690.23 645.447L681.191 655.307L689.819 659.826L698.036 662.291L709.54 663.113L724.33 667.222H739.121L747.338 665.578H781.028L781.849 664.757H788.423L804.857 661.47L816.361 660.648L831.973 655.718L839.369 654.896L842.655 653.253L851.694 651.609L899.353 634.354L912.5 627.78L919.074 626.137L931.399 617.92L940.438 613.811L964.267 594.09L971.663 591.625H974.949C980.154 592.447 984.125 594.501 986.864 597.788C990.699 601.896 992.616 607.922 992.616 615.865C991.082 622.549 987.658 627.342 982.345 630.245L974.128 635.175L957.694 649.144L947.833 653.253L930.578 663.935L920.717 667.222L913.322 671.33L894.423 677.082L876.345 685.299L852.516 691.873L847.586 694.338H841.834L827.043 699.268H822.935L812.252 701.733H805.679L785.136 705.842H748.16L744.051 707.485H719.4L718.578 706.663L709.54 705.842L702.966 703.377H695.571L678.315 699.268L659.416 689.408C651.473 688.038 644.625 685.573 638.873 682.012L629.013 687.764L615.044 692.694L604.362 693.516L583.819 700.09L574.781 700.911L573.959 701.733H561.633L560.812 702.555L547.664 703.377L541.091 705.02H532.052L524.657 703.377H512.331C509.811 701.788 506.251 701.24 501.649 701.733L468.781 690.229L433.448 711.594L419.479 717.346L412.084 718.989H383.324C379.982 717.126 375.326 716.579 369.355 717.346L346.347 711.594L315.123 698.446L292.937 686.121L266.232 662.702L252.263 647.09L241.58 631.478L233.363 615.044L232.542 609.292L229.255 601.896L221.86 568.207V503.292L222.681 502.47L223.503 490.145L226.79 473.711L239.937 429.339L254.728 401.401L262.945 382.502L276.914 361.138L288.417 346.347L297.867 336.898L309.371 331.967ZM462.618 580.121L449.471 585.873L445.363 592.447L442.897 604.772V621.206L447.006 631.067C451.388 635.997 457.14 639.832 464.262 642.571L479.052 623.672L484.804 608.881C484.256 605.594 484.53 603.677 485.626 603.129L484.804 601.486C484.256 598.747 484.53 597.103 485.626 596.555L484.804 590.803L473.3 580.121H462.618ZM645.858 586.695C640.928 589.982 637.367 594.638 635.176 600.664L635.997 621.206C637.093 626.684 639.01 631.067 641.749 634.354H644.214L654.075 628.602L659.827 621.206L663.935 603.951L664.757 593.269L657.362 587.517L645.858 586.695Z" fill="#FF6600"/>
<path opacity="0.992157" d="M172.968 336.897L181.185 337.719C185.458 339.527 188.882 342.129 191.457 345.525L194.743 353.742V360.316C193.045 366.068 189.895 370.313 185.294 373.052L172.147 380.448L155.302 395.649L141.333 413.727L120.79 444.13L106 473.711L96.1391 488.501L82.9919 517.261L64.9144 571.493L63.271 573.958L59.9842 590.392L50.9455 616.687L47.6587 632.299V636.408L44.3719 647.09V653.664L43.5502 654.485L41.9068 675.028L41.0851 675.849V720.221L39.4417 725.152V748.981L41.0851 754.733L41.9068 774.454L43.5502 780.206L47.6587 813.074L59.1625 852.515L73.9532 887.027L102.713 926.058H104.356C103.754 927.537 104.164 928.085 105.589 927.701L113.806 932.631L118.325 937.151L121.612 944.546V953.585C119.585 959.775 116.161 964.568 111.341 967.964C107.889 971.087 102.411 972.183 94.9066 971.251L84.6353 964.267L80.1159 958.926L72.3098 952.763L45.1936 916.608L40.2634 908.391L33.6898 895.244L25.4728 872.236L21.3642 864.019L15.6123 846.763L13.9689 836.903L9.03872 821.291L8.21702 811.43L4.93021 796.64L4.10851 778.562L2.46511 773.632V767.058L0.821702 758.841V757.198V750.624L0 749.803V725.973L1.6434 716.935V672.563L3.28681 665.989V656.95L4.93021 651.198V645.446L6.57362 641.338L11.5038 612.578L18.8991 592.036L23.8294 569.028L44.3719 508.222L59.9842 473.711L65.7362 465.494L88.7438 421.944L95.3174 414.548L115.038 384.145L131.061 365.657L159.821 341.828C163.382 339.363 167.764 337.719 172.968 336.897Z" fill="#FF6600"/>
<path opacity="0.992157" d="M865.663 735.423H905.105L905.927 736.245C910.035 735.423 913.048 735.697 914.965 737.066L915.787 736.245H925.648L926.469 737.066H936.33C942.246 739.367 949.093 740.737 956.872 741.175L966.733 743.64L976.593 748.57L1011.1 771.578L1028.77 788.423L1048.49 820.469L1058.35 841.833L1066.57 876.345V882.097L1068.21 887.027C1067.39 891.135 1067.67 894.148 1069.03 896.066L1068.21 899.353L1069.03 900.996L1068.21 903.461L1069.03 904.283V917.43L1069.86 918.252L1070.68 962.624L1069.86 963.445L1069.03 975.771L1064.93 989.74L1048.49 1027.54L1030.41 1051.37L1017.68 1064.1L1002.89 1075.61L989.74 1083C987.22 1084.59 983.66 1085.14 979.058 1084.65L952.764 1093.69L927.291 1094.51L926.469 1093.69H914.965L903.462 1091.22L878.811 1082.18C863.472 1074.51 850.462 1064.51 839.78 1052.19L834.028 1044.79L825.811 1028.36L820.059 1006.17L819.237 993.848L817.594 987.275V975.771L816.772 974.949V914.965L819.237 905.926V901.818L820.881 899.353L827.454 877.988L846.353 843.477L854.159 835.671C857.391 832.877 862.048 831.507 868.128 831.562C868.95 832.932 870.867 833.206 873.88 832.384L877.167 834.027L882.508 839.368L886.617 848.407V858.267C884.59 863.91 881.303 868.292 876.756 871.415L866.896 888.67L857.857 910.856L855.392 920.717V974.127L856.214 974.949V985.631L857.857 993.027V999.6L860.322 1011.1L866.074 1022.61L871.415 1028.77C876.838 1034.58 883.138 1039.51 890.314 1043.56L907.57 1050.96L917.431 1054.24H921.539L924.826 1053.42L925.648 1054.24L935.508 1055.07L936.33 1054.24L945.368 1053.42L966.733 1046.03H970.841L977.415 1043.56C987.33 1037.04 995.958 1029.24 1003.3 1020.14L1013.16 1007.82L1027.95 974.949L1032.06 956.872V948.655L1031.24 947.833L1030.41 894.422L1023.02 857.446L1018.09 845.12C1013.98 840.19 1010.69 834.438 1008.23 827.864L1000.01 814.717L990.562 805.268L970.841 792.942L965.089 788.012L951.942 780.617L939.616 778.973L932.221 776.508H913.322L912.5 775.686H899.353L898.531 774.865L896.888 775.686L894.423 774.865H892.779L885.384 775.686L883.741 774.865H882.097H873.88L863.198 778.151H859.09L827.865 789.655C815.43 796.393 804.611 804.747 795.408 814.717C788.505 822.879 782.754 832.192 778.152 842.655L773.633 847.174L767.059 849.64H761.307L751.447 846.353L746.927 841.833L742.819 830.33V823.756C750.269 806.007 760.54 791.08 773.633 778.973L790.888 765.004L813.074 751.857L841.834 741.175L865.663 735.423Z" fill="#FF6600"/>
<path opacity="0.992157" d="M377.572 758.431L378.394 759.253H386.611L387.433 760.074H396.471L397.293 760.896L407.975 761.718L446.595 774.865L467.138 787.19L483.161 799.516C482.558 800.995 482.969 801.543 484.394 801.159L500.417 818.826L509.455 831.152L518.494 850.872L525.889 862.376L534.928 881.275L539.037 897.709L539.858 911.678L542.324 922.36V942.903L541.502 943.725V952.763L540.68 953.585V963.446L537.393 982.345L536.572 997.135L534.106 1004.53L533.285 1011.93L525.889 1034.11L512.742 1057.94L490.967 1080.54L475.355 1092.86L447.417 1106.01L421.122 1112.58H400.58L375.929 1106.01C368.643 1103.44 362.48 1099.74 357.441 1094.92L341.828 1075.2L326.216 1050.55L321.286 1040.69L316.355 1026.72L311.425 1000.42V998.779V992.205L310.604 991.383V956.872L314.712 933.043L327.038 902.64L345.937 874.702L359.495 860.322L369.355 856.213H377.572C383.653 857.528 388.172 860.404 391.13 864.841L393.595 869.772L394.417 877.167C393.102 883.795 390.226 888.862 385.789 892.368L377.161 899.353L364.014 917.43L354.975 937.973L350.867 957.694V986.453L351.689 987.275L352.51 1000.42L356.619 1020.14L365.658 1037.4L382.092 1062.05L388.254 1069.03L403.867 1073.96H416.192L430.161 1070.68L451.525 1060.82C461.715 1054.3 470.616 1046.49 478.231 1037.4L488.091 1022.61L495.487 997.135L497.13 988.918L497.952 971.663L499.595 965.911L500.417 951.942L501.238 951.12L502.06 929.756L501.238 928.934L500.417 914.143L498.773 909.213V902.64L496.308 894.423L470.835 845.942L449.06 823.345L434.27 811.842L408.797 801.981L400.58 799.516L378.394 797.873L377.572 797.051H368.534L366.068 797.873L355.386 798.694L342.239 803.625H339.774L320.875 814.307L303.208 828.686L290.061 850.872L285.131 868.128V871.415C286.5 872.237 286.774 874.154 285.953 877.167C284.364 885.165 280.666 891.054 274.86 894.833C272.614 896.97 269.053 897.792 264.177 897.299L257.604 895.655L248.154 889.492L244.867 879.632V868.128L245.689 867.306L246.511 855.803L253.906 834.438L266.232 812.252L280.611 795.407L302.797 778.973L311.014 775.687L320.875 769.113L342.239 761.718L357.03 760.074L357.851 759.253H376.751L377.572 758.431Z" fill="#FF6600"/>
<path opacity="0.992157" d="M223.914 973.717C230.816 973.936 235.609 976.264 238.293 980.701L243.224 990.562V1000.42L244.045 1001.24L244.867 1016.86L246.51 1023.43C245.689 1029.73 245.963 1034.93 247.332 1039.04L246.51 1039.86L245.689 1063.69L244.867 1064.51L244.045 1076.84V1078.48V1085.06L244.867 1085.88V1087.52V1110.53L247.332 1124.5L258.014 1155.72L269.518 1180.37L277.735 1190.24L285.13 1204.2L293.347 1214.06L298.278 1224.75L346.347 1284.32L362.781 1297.47L375.929 1304.04L394.006 1316.37L437.556 1339.37L471.246 1351.7L478.641 1355.81L490.967 1359.92L510.688 1368.96L516.44 1369.78L525.478 1373.89L541.091 1377.99L564.098 1386.21L590.393 1391.96H602.718L603.54 1392.78H613.4L614.222 1393.61L615.044 1392.78H622.439L623.261 1393.61H632.3L633.121 1394.43H637.23L642.982 1396.07H650.377L656.951 1397.71L659.416 1396.89L662.702 1397.71H688.997L689.819 1396.89H712.826L720.222 1395.25H733.369L739.121 1393.61H740.764H743.229L753.09 1389.5L758.842 1388.68L774.454 1382.1L815.539 1372.24L821.291 1368.96L830.33 1367.31L853.337 1359.09L872.236 1348.41L876.345 1347.59L893.601 1338.55L903.461 1336.09C907.679 1332.36 912.883 1329.62 919.073 1327.87L953.996 1299.52L958.104 1293.36C959.583 1293.96 960.131 1293.55 959.748 1292.13L974.538 1278.98L986.453 1266.24L989.329 1264.19L1007.41 1242L1020.96 1228.44L1050.96 1203.38L1069.86 1181.2L1084.65 1160.65L1088.75 1152.44L1094.92 1146.27C1097.55 1143.7 1101.93 1142.88 1108.06 1143.81C1114.26 1145.01 1119.05 1147.62 1122.44 1151.62L1124.91 1157.37V1171.34C1122.44 1177.91 1119.16 1183.66 1115.05 1188.59L1086.29 1224.34C1084.81 1223.73 1084.26 1224.14 1084.65 1225.57L1062.87 1252.27L1052.19 1259.67C1038.38 1274.51 1023.18 1287.66 1006.58 1299.11C1007.19 1300.59 1006.78 1301.14 1005.35 1300.75L988.918 1318.83L983.577 1322.53L973.306 1334.44L931.399 1366.49L914.965 1374.71L909.213 1375.53L898.531 1380.46L883.74 1388.68L875.523 1391.14L865.663 1397.71L860.733 1398.54L850.051 1403.47L844.299 1404.29L821.291 1412.51L813.896 1413.33L796.64 1419.08L788.423 1419.9L765.415 1428.94L759.663 1429.76L753.09 1433.05C749.967 1432.66 747.776 1433.21 746.516 1434.69H739.121L738.299 1435.51L735.834 1434.69L733.369 1435.51L718.578 1436.33L717.757 1437.16L669.276 1438.8L668.454 1437.98L645.447 1437.16L633.943 1434.69L610.935 1433.05L609.292 1433.87L600.253 1432.23H585.463C584.805 1431.02 583.162 1430.75 580.532 1431.4L576.424 1429.76L564.098 1428.12L549.308 1423.19L543.556 1422.37L526.3 1415.79L510.688 1411.68L499.184 1406.75L490.967 1405.11L474.533 1396.89L429.339 1379.64L387.432 1359.09L355.386 1338.55L347.169 1335.27L332.378 1324.58L314.712 1308.56L266.231 1247.75L260.479 1236.25L249.797 1223.1L246.51 1214.06L234.185 1198.45L226.79 1181.2L222.681 1175.44L217.751 1157.37L213.642 1149.97L207.89 1129.43V1125.32L206.247 1120.39L205.425 1082.59C204.056 1081.77 203.782 1079.85 204.604 1076.84L206.247 1069.44V1053.01L207.069 1052.19C206.302 1047.31 206.576 1043.48 207.89 1040.69L207.069 1039.86V1025.89L205.425 1020.14L204.604 1004.53L203.782 1003.71V993.027C205.151 987.275 207.754 982.755 211.588 979.469L219.805 974.538L223.914 973.717Z" fill="#FF6600"/>
<path opacity="0.992157" d="M740.764 1131.48H750.625L751.446 1132.3H758.842L759.664 1133.13L768.702 1133.95C774.564 1136.03 779.083 1139.45 782.26 1144.22C785.054 1148 785.876 1153.75 784.725 1161.48L773.222 1205.03L765.826 1224.75L762.539 1230.5L756.788 1247.75L737.067 1283.09L718.989 1308.56L712.005 1315.54L700.501 1319.65H690.641L678.315 1313.08L656.54 1297.47L634.354 1270.76L615.455 1243.65L606.827 1235.02L598.199 1228.03L566.974 1186.13C563.852 1182.68 562.756 1177.2 563.688 1169.69C565.714 1164.87 568.59 1160.9 572.315 1157.78L584.641 1147.92L589.571 1146.27C593.241 1146.66 595.98 1146.11 597.788 1144.63H604.362L619.152 1140.52H640.517L643.804 1139.7L645.447 1140.52L654.486 1138.06L676.672 1137.24L694.749 1133.95H725.152L725.974 1133.13H735.012L740.764 1131.48ZM741.175 1172.57L740.354 1173.39H732.136L731.315 1174.21H700.912L684.478 1177.5L661.47 1178.32L650.788 1180.79H625.315L615.455 1183.25L621.207 1191.47L623.672 1197.22L631.067 1202.97L631.889 1205.44L641.749 1213.65C641.201 1214.75 641.749 1215.02 643.393 1214.48L645.858 1220.23L654.075 1229.27L663.114 1244.06L673.796 1256.38L674.617 1258.85L687.765 1271.17L695.16 1276.1L705.842 1261.31L720.633 1234.2L735.423 1198.04L737.067 1188.18L741.997 1175.03L741.175 1172.57Z" fill="#FF6600"/>
</svg>
