<svg width="1011" height="1108" viewBox="0 0 1011 1108" fill="none" xmlns="http://www.w3.org/2000/svg">
<path opacity="0.992157" d="M309.371 0.462207C314.575 -0.359495 318.683 -0.0855939 321.696 1.28391L328.681 7.44667L331.968 17.3071V24.7024L330.324 29.6326L323.34 36.6171L314.712 43.6016L295.813 71.5394L294.169 77.2913L276.914 110.981L267.053 142.206L266.232 149.601L263.766 156.996L262.945 169.322L261.301 175.074V233.415L266.232 255.601L272.805 274.5L278.557 284.36L301.976 309.422L315.123 320.926L321.696 325.034L349.634 338.182L362.782 342.29L369.355 343.112L375.107 345.577L407.153 347.22L420.301 343.112L429.75 337.771L419.89 329.554C412.659 321.446 407.455 311.312 404.277 299.151C405.099 296.138 404.825 294.221 403.456 293.399V269.57L409.208 244.919C412.604 237.085 417.397 230.648 423.587 225.609L435.913 217.392L448.239 211.64L458.099 208.353L467.959 207.531L468.781 208.353H479.463L490.145 211.64C498.801 215.858 506.059 221.473 511.92 228.484L519.316 239.167L523.424 249.027L525.068 258.066V270.391L524.246 271.213V277.787L522.603 286.004L518.494 298.329L511.92 312.298L501.238 327.5L509.044 329.965H513.153L518.905 331.608L543.556 332.43L544.378 331.608H554.238L563.277 329.965H573.137L593.68 323.391L606.416 321.748L598.199 300.794C598.199 295.59 597.377 291.208 595.734 287.647V268.748C597.213 267.817 597.487 265.625 596.556 262.174L603.129 246.562C607.895 238.181 613.784 230.922 620.796 224.787L632.3 217.392L642.16 214.926H647.912H651.199H661.881L670.92 217.392C680.89 221.938 689.244 228.101 695.982 235.88C701.241 242.399 704.253 251.163 705.02 262.174L703.377 267.926V276.143L701.734 284.36L697.625 298.329L690.23 313.941L681.191 323.802L689.819 328.321L698.036 330.786L709.54 331.608L724.33 335.717H739.121L747.338 334.073H781.028L781.849 333.251H788.423L804.857 329.965L816.361 329.143L831.973 324.213L839.369 323.391L842.655 321.748L851.694 320.104L899.353 302.849L912.5 296.275L919.074 294.631L931.399 286.414L940.438 282.306L964.267 262.585L971.663 260.12H974.949C980.154 260.942 984.125 262.996 986.864 266.283C990.699 270.391 992.616 276.417 992.616 284.36C991.082 291.043 987.658 295.837 982.345 298.74L974.128 303.67L957.694 317.639L947.833 321.748L930.578 332.43L920.717 335.717L913.322 339.825L894.423 345.577L876.345 353.794L852.516 360.368L847.586 362.833H841.834L827.043 367.763H822.935L812.252 370.228H805.679L785.136 374.337H748.16L744.051 375.98H719.4L718.578 375.158L709.54 374.337L702.966 371.871H695.571L678.315 367.763L659.416 357.903C651.473 356.533 644.625 354.068 638.873 350.507L629.013 356.259L615.044 361.189L604.362 362.011L583.819 368.585L574.781 369.406L573.959 370.228H561.633L560.812 371.05L547.664 371.871L541.091 373.515H532.052L524.657 371.871H512.331C509.811 370.283 506.251 369.735 501.649 370.228L468.781 358.724L433.448 380.088L419.479 385.84L412.084 387.484H383.324C379.982 385.621 375.326 385.073 369.355 385.84L346.347 380.088L315.123 366.941L292.937 354.616L266.232 331.197L252.263 315.585L241.58 299.973L233.363 283.539L232.542 277.787L229.255 270.391L221.86 236.701V171.787L222.681 170.965L223.503 158.64L226.79 142.206L239.937 97.8339L254.728 69.896L262.945 50.9969L276.914 29.6326L288.417 14.842L297.867 5.39242L309.371 0.462207ZM462.618 248.616L449.471 254.368L445.363 260.942L442.897 273.267V289.701L447.006 299.562C451.388 304.492 457.14 308.327 464.262 311.066L479.052 292.166L484.804 277.376C484.256 274.089 484.53 272.172 485.626 271.624L484.804 269.98C484.256 267.241 484.53 265.598 485.626 265.05L484.804 259.298L473.3 248.616H462.618ZM645.858 255.19C640.928 258.477 637.367 263.133 635.176 269.159L635.997 289.701C637.093 295.179 639.01 299.562 641.749 302.849H644.214L654.075 297.097L659.827 289.701L663.935 272.446L664.757 261.763L657.362 256.011L645.858 255.19Z" fill="#FF6600"/>
<path opacity="0.992157" d="M172.968 5.39233L181.185 6.21404C185.458 8.02178 188.882 10.6238 191.457 14.0202L194.743 22.2372V28.8108C193.045 34.5627 189.895 38.8082 185.294 41.5472L172.147 48.9425L155.302 64.144L141.333 82.2215L120.79 112.624L106 142.206L96.1391 156.996L82.9919 185.756L64.9144 239.988L63.271 242.453L59.9842 258.887L50.9455 285.182L47.6587 300.794V304.903L44.3719 315.585V322.158L43.5502 322.98L41.9068 343.523L41.0851 344.344V388.716L39.4417 393.646V417.476L41.0851 423.228L41.9068 442.949L43.5502 448.7L47.6587 481.569L59.1625 521.01L73.9532 555.522L102.713 594.553H104.356C103.754 596.032 104.164 596.579 105.589 596.196L113.806 601.126L118.325 605.646L121.612 613.041V622.08C119.585 628.27 116.161 633.063 111.341 636.459C107.889 639.582 102.411 640.677 94.9066 639.746L84.6353 632.762L80.1159 627.421L72.3098 621.258L45.1936 585.103L40.2634 576.886L33.6898 563.739L25.4728 540.731L21.3642 532.514L15.6123 515.258L13.9689 505.398L9.03872 489.786L8.21702 479.925L4.93021 465.135L4.10851 447.057L2.46511 442.127V435.553L0.821702 427.336V425.693V419.119L0 418.298V394.468L1.6434 385.429V341.058L3.28681 334.484V325.445L4.93021 319.693V313.941L6.57362 309.833L11.5038 281.073L18.8991 260.531L23.8294 237.523L44.3719 176.717L59.9842 142.206L65.7362 133.989L88.7438 90.4385L95.3174 83.0432L115.038 52.6402L131.061 34.1519L159.821 10.3225C163.382 7.85744 167.764 6.21404 172.968 5.39233Z" fill="#FF6600"/>
<path opacity="0.992157" d="M865.663 403.918H905.105L905.927 404.739C910.035 403.918 913.048 404.192 914.965 405.561L915.787 404.739H925.648L926.469 405.561H936.33C942.246 407.862 949.093 409.231 956.872 409.67L966.733 412.135L976.593 417.065L1011.1 440.073L1028.77 456.917L1048.49 488.964L1058.35 510.328L1066.57 544.84V550.592L1068.21 555.522C1067.39 559.63 1067.67 562.643 1069.03 564.56L1068.21 567.847L1069.03 569.491L1068.21 571.956L1069.03 572.777V585.925L1069.86 586.746L1070.68 631.118L1069.86 631.94L1069.03 644.266L1064.93 658.234L1048.49 696.033L1030.41 719.862L1017.68 732.599L1002.89 744.102L989.74 751.498C987.22 753.086 983.66 753.634 979.058 753.141L952.764 762.18L927.291 763.001L926.469 762.18H914.965L903.462 759.715L878.811 750.676C863.472 743.007 850.462 733.009 839.78 720.684L834.028 713.289L825.811 696.854L820.059 674.669L819.237 662.343L817.594 655.769V644.266L816.772 643.444V583.46L819.237 574.421V570.312L820.881 567.847L827.454 546.483L846.353 511.972L854.159 504.165C857.391 501.372 862.048 500.002 868.128 500.057C868.95 501.426 870.867 501.7 873.88 500.879L877.167 502.522L882.508 507.863L886.617 516.902V526.762C884.59 532.405 881.303 536.787 876.756 539.909L866.896 557.165L857.857 579.351L855.392 589.212V642.622L856.214 643.444V654.126L857.857 661.521V668.095L860.322 679.599L866.074 691.103L871.415 697.265C876.838 703.072 883.138 708.002 890.314 712.056L907.57 719.451L917.431 722.738H921.539L924.826 721.916L925.648 722.738L935.508 723.56L936.33 722.738L945.368 721.916L966.733 714.521H970.841L977.415 712.056C987.33 705.537 995.958 697.731 1003.3 688.637L1013.16 676.312L1027.95 643.444L1032.06 625.366V617.149L1031.24 616.328L1030.41 562.917L1023.02 525.94L1018.09 513.615C1013.98 508.685 1010.69 502.933 1008.23 496.359L1000.01 483.212L990.562 473.762L970.841 461.437L965.089 456.507L951.942 449.111L939.616 447.468L932.221 445.003H913.322L912.5 444.181H899.353L898.531 443.359L896.888 444.181L894.423 443.359H892.779L885.384 444.181L883.741 443.359H882.097H873.88L863.198 446.646H859.09L827.865 458.15C815.43 464.888 804.611 473.242 795.408 483.212C788.505 491.374 782.754 500.687 778.152 511.15L773.633 515.669L767.059 518.134H761.307L751.447 514.847L746.927 510.328L742.819 498.824V492.251C750.269 474.502 760.54 459.574 773.633 447.468L790.888 433.499L813.074 420.352L841.834 409.67L865.663 403.918Z" fill="#FF6600"/>
<path opacity="0.992157" d="M377.572 426.926L378.394 427.747H386.611L387.433 428.569H396.471L397.293 429.391L407.975 430.213L446.595 443.36L467.138 455.685L483.161 468.011C482.558 469.49 482.969 470.038 484.394 469.654L500.417 487.321L509.455 499.646L518.494 519.367L525.889 530.871L534.928 549.77L539.037 566.204L539.858 580.173L542.324 590.855V611.398L541.502 612.22V621.258L540.68 622.08V631.94L537.393 650.84L536.572 665.63L534.106 673.025L533.285 680.421L525.889 702.607L512.742 726.436L490.967 749.033L475.355 761.358L447.417 774.506L421.122 781.079H400.58L375.929 774.506C368.643 771.931 362.48 768.233 357.441 763.413L341.828 743.692L326.216 719.041L321.286 709.18L316.355 695.211L311.425 668.917V667.274V660.7L310.604 659.878V625.367L314.712 601.537L327.038 571.134L345.937 543.197L359.495 528.817L369.355 524.708H377.572C383.653 526.023 388.172 528.899 391.13 533.336L393.595 538.266L394.417 545.662C393.102 552.29 390.226 557.357 385.789 560.863L377.161 567.848L364.014 585.925L354.975 606.468L350.867 626.188V654.948L351.689 655.77L352.51 668.917L356.619 688.638L365.658 705.894L382.092 730.545L388.254 737.529L403.867 742.459H416.192L430.161 739.172L451.525 729.312C461.715 722.793 470.616 714.987 478.231 705.894L488.091 691.103L495.487 665.63L497.13 657.413L497.952 640.157L499.595 634.406L500.417 620.437L501.238 619.615L502.06 598.251L501.238 597.429L500.417 582.638L498.773 577.708V571.134L496.308 562.917L470.835 514.437L449.06 491.84L434.27 480.336L408.797 470.476L400.58 468.011L378.394 466.367L377.572 465.546H368.534L366.068 466.367L355.386 467.189L342.239 472.119H339.774L320.875 482.802L303.208 497.181L290.061 519.367L285.131 536.623V539.91C286.5 540.731 286.774 542.649 285.953 545.662C284.364 553.66 280.666 559.548 274.86 563.328C272.614 565.465 269.053 566.286 264.177 565.793L257.604 564.15L248.154 557.987L244.867 548.127V536.623L245.689 535.801L246.511 524.297L253.906 502.933L266.232 480.747L280.611 463.902L302.797 447.468L311.014 444.182L320.875 437.608L342.239 430.213L357.03 428.569L357.851 427.747H376.751L377.572 426.926Z" fill="#FF6600"/>
<path opacity="0.992157" d="M223.914 642.212C230.816 642.431 235.609 644.759 238.293 649.196L243.224 659.056V668.917L244.045 669.739L244.867 685.351L246.51 691.925C245.689 698.224 245.963 703.428 247.332 707.537L246.51 708.359L245.689 732.188L244.867 733.01L244.045 745.335V746.979V753.552L244.867 754.374V756.017V779.025L247.332 792.994L258.014 824.219L269.518 848.87L277.735 858.73L285.13 872.699L293.347 882.559L298.278 893.241L346.347 952.815L362.781 965.962L375.929 972.536L394.006 984.861L437.556 1007.87L471.246 1020.19L478.641 1024.3L490.967 1028.41L510.688 1037.45L516.44 1038.27L525.478 1042.38L541.091 1046.49L564.098 1054.71L590.393 1060.46H602.718L603.54 1061.28H613.4L614.222 1062.1L615.044 1061.28H622.439L623.261 1062.1H632.3L633.121 1062.92H637.23L642.982 1064.57H650.377L656.951 1066.21L659.416 1065.39L662.702 1066.21H688.997L689.819 1065.39H712.826L720.222 1063.74H733.369L739.121 1062.1H740.764H743.229L753.09 1057.99L758.842 1057.17L774.454 1050.6L815.539 1040.74L821.291 1037.45L830.33 1035.81L853.337 1027.59L872.236 1016.91L876.345 1016.09L893.601 1007.05L903.461 1004.58C907.679 1000.86 912.883 998.118 919.073 996.365L953.996 968.016L958.104 961.854C959.583 962.456 960.131 962.045 959.748 960.621L974.538 947.474L986.453 934.737L989.329 932.683L1007.41 910.497L1020.96 896.939L1050.96 871.877L1069.86 849.691L1084.65 829.149L1088.75 820.932L1094.92 814.769C1097.55 812.194 1101.93 811.373 1108.06 812.304C1114.26 813.509 1119.05 816.111 1122.44 820.11L1124.91 825.862V839.831C1122.44 846.404 1119.16 852.156 1115.05 857.087L1086.29 892.831C1084.81 892.228 1084.26 892.639 1084.65 894.063L1062.87 920.768L1052.19 928.164C1038.38 943.009 1023.18 956.156 1006.58 967.605C1007.19 969.085 1006.78 969.632 1005.35 969.249L988.918 987.326L983.577 991.024L973.306 1002.94L931.399 1034.99L914.965 1043.2L909.213 1044.02L898.531 1048.95L883.74 1057.17L875.523 1059.64L865.663 1066.21L860.733 1067.03L850.051 1071.96L844.299 1072.78L821.291 1081L813.896 1081.82L796.64 1087.57L788.423 1088.4L765.415 1097.43L759.663 1098.26L753.09 1101.54C749.967 1101.16 747.776 1101.71 746.516 1103.19H739.121L738.299 1104.01L735.834 1103.19L733.369 1104.01L718.578 1104.83L717.757 1105.65L669.276 1107.29L668.454 1106.47L645.447 1105.65L633.943 1103.19L610.935 1101.54L609.292 1102.36L600.253 1100.72H585.463C584.805 1099.52 583.162 1099.24 580.532 1099.9L576.424 1098.26L564.098 1096.61L549.308 1091.68L543.556 1090.86L526.3 1084.29L510.688 1080.18L499.184 1075.25L490.967 1073.61L474.533 1065.39L429.339 1048.13L387.432 1027.59L355.386 1007.05L347.169 1003.76L332.378 993.078L314.712 977.055L266.231 916.249L260.479 904.745L249.797 891.598L246.51 882.559L234.185 866.947L226.79 849.691L222.681 843.939L217.751 825.862L213.642 818.467L207.89 797.924V793.816L206.247 788.885L205.425 751.087C204.056 750.265 203.782 748.348 204.604 745.335L206.247 737.94V721.506L207.069 720.684C206.302 715.809 206.576 711.974 207.89 709.18L207.069 708.359V694.39L205.425 688.638L204.604 673.025L203.782 672.204V661.522C205.151 655.77 207.754 651.25 211.588 647.963L219.805 643.033L223.914 642.212Z" fill="#FF6600"/>
<path opacity="0.992157" d="M740.764 799.978H750.625L751.446 800.8H758.842L759.664 801.622L768.702 802.443C774.564 804.525 779.083 807.949 782.26 812.715C785.054 816.494 785.876 822.246 784.725 829.97L773.222 873.52L765.826 893.241L762.539 898.993L756.788 916.249L737.067 951.582L718.989 977.055L712.005 984.039L700.501 988.148H690.641L678.315 981.574L656.54 965.962L634.354 939.257L615.455 912.14L606.827 903.513L598.199 896.528L566.974 854.621C563.852 851.17 562.756 845.692 563.688 838.187C565.714 833.367 568.59 829.395 572.315 826.273L584.641 816.412L589.571 814.769C593.241 815.152 595.98 814.604 597.788 813.125H604.362L619.152 809.017H640.517L643.804 808.195L645.447 809.017L654.486 806.552L676.672 805.73L694.749 802.443H725.152L725.974 801.622H735.012L740.764 799.978ZM741.175 841.063L740.354 841.885H732.136L731.315 842.707H700.912L684.478 845.993L661.47 846.815L650.788 849.28H625.315L615.455 851.745L621.207 859.962L623.672 865.714L631.067 871.466L631.889 873.931L641.749 882.148C641.201 883.244 641.749 883.518 643.393 882.97L645.858 888.722L654.075 897.761L663.114 912.551L673.796 924.877L674.617 927.342L687.765 939.667L695.16 944.598L705.842 929.807L720.633 902.691L735.423 866.536L737.067 856.676L741.997 843.528L741.175 841.063Z" fill="#FF6600"/>
</svg>
