<svg width="1080" height="1154" viewBox="0 0 1080 1154" fill="none" xmlns="http://www.w3.org/2000/svg">
<mask id="path-1-inside-1_110_502" fill="white">
<path d="M1080 1100.98C1051.3 1101.53 1028.14 1124.7 1027.58 1153.4H54.5127C53.9542 1124.35 30.2323 1100.97 1.04883 1100.97C0.698513 1100.97 0.348711 1100.97 0 1100.98V0H1080V1100.98Z"/>
</mask>
<path d="M1080 1100.98C1051.3 1101.53 1028.14 1124.7 1027.58 1153.4H54.5127C53.9542 1124.35 30.2323 1100.97 1.04883 1100.97C0.698513 1100.97 0.348711 1100.97 0 1100.98V0H1080V1100.98Z" fill="#FFF7ED"/>
<path d="M1080 1100.98L1080.15 1108.98L1088 1108.83V1100.98H1080ZM1027.58 1153.4V1161.4H1035.43L1035.58 1153.55L1027.58 1153.4ZM54.5127 1153.4L46.5142 1153.55L46.665 1161.4H54.5127V1153.4ZM1.04883 1100.97L1.04887 1092.97H1.04883V1100.97ZM0 1100.98H-8V1109.14L0.153827 1108.98L0 1100.98ZM0 0V-8H-8V0H0ZM1080 0H1088V-8H1080V0ZM1080 1100.98L1079.85 1092.98C1046.85 1093.62 1020.22 1120.25 1019.59 1153.24L1027.58 1153.4L1035.58 1153.55C1036.05 1129.15 1055.75 1109.45 1080.15 1108.98L1080 1100.98ZM1027.58 1153.4V1145.4H54.5127V1153.4V1161.4H1027.58V1153.4ZM54.5127 1153.4L62.5112 1153.24C61.8691 1119.85 34.5995 1092.97 1.04887 1092.97L1.04883 1100.97L1.04879 1108.97C25.8652 1108.97 46.0393 1128.85 46.5142 1153.55L54.5127 1153.4ZM1.04883 1100.97V1092.97C0.637592 1092.97 0.235511 1092.98 -0.153827 1092.98L0 1100.98L0.153827 1108.98C0.461911 1108.97 0.759434 1108.97 1.04883 1108.97V1100.97ZM0 1100.98H8V0H0H-8V1100.98H0ZM0 0V8H1080V0V-8H0V0ZM1080 0H1072V1100.98H1080H1088V0H1080Z" fill="#FF6600" mask="url(#path-1-inside-1_110_502)"/>
<line x1="54.5244" y1="1149.2" x2="1027.57" y2="1149.2" stroke="black" stroke-width="8.38835" stroke-dasharray="33.55 33.55"/>
</svg>
