<svg width="980" height="961" viewBox="0 0 980 961" fill="none" xmlns="http://www.w3.org/2000/svg">
<path opacity="0.992157" d="M309.371 -146.538C314.575 -147.359 318.683 -147.086 321.696 -145.716L328.681 -139.553L331.968 -129.693V-122.298L330.324 -117.367L323.34 -110.383L314.712 -103.398L295.813 -75.4606L294.169 -69.7087L276.914 -36.0189L267.053 -4.79422L266.232 2.6011L263.766 9.99642L262.945 22.3219L261.301 28.0739V86.4147L266.232 108.601L272.805 127.5L278.557 137.36L301.976 162.422L315.123 173.926L321.696 178.034L349.634 191.182L362.782 195.29L369.355 196.112L375.107 198.577L407.153 200.22L420.301 196.112L429.75 190.771L419.89 182.554C412.659 174.446 407.455 164.312 404.277 152.151C405.099 149.138 404.825 147.221 403.456 146.399V122.57L409.208 97.9185C412.604 90.085 417.397 83.6483 423.587 78.6085L435.913 70.3915L448.239 64.6396L458.099 61.3528L467.959 60.5311L468.781 61.3528H479.463L490.145 64.6396C498.801 68.8577 506.059 74.4726 511.92 81.4845L519.316 92.1666L523.424 102.027L525.068 111.066V123.391L524.246 124.213V130.787L522.603 139.004L518.494 151.329L511.92 165.298L501.238 180.5L509.044 182.965H513.153L518.905 184.608L543.556 185.43L544.378 184.608H554.238L563.277 182.965H573.137L593.68 176.391L606.416 174.748L598.199 153.794C598.199 148.59 597.377 144.208 595.734 140.647V121.748C597.213 120.817 597.487 118.625 596.556 115.174L603.129 99.5619C607.895 91.1806 613.784 83.9222 620.796 77.7868L632.3 70.3915L642.16 67.9264H647.912H651.199H661.881L670.92 70.3915C680.89 74.9383 689.244 81.101 695.982 88.8798C701.241 95.3986 704.253 104.163 705.02 115.174L703.377 120.926V129.143L701.734 137.36L697.625 151.329L690.23 166.941L681.191 176.802L689.819 181.321L698.036 183.786L709.54 184.608L724.33 188.717H739.121L747.338 187.073H781.028L781.849 186.251H788.423L804.857 182.965L816.361 182.143L831.973 177.213L839.369 176.391L842.655 174.748L851.694 173.104L899.353 155.849L912.5 149.275L919.074 147.631L931.399 139.414L940.438 135.306L964.267 115.585L971.663 113.12H974.949C980.154 113.942 984.125 115.996 986.864 119.283C990.699 123.391 992.616 129.417 992.616 137.36C991.082 144.043 987.658 148.837 982.345 151.74L974.128 156.67L957.694 170.639L947.833 174.748L930.578 185.43L920.717 188.717L913.322 192.825L894.423 198.577L876.345 206.794L852.516 213.368L847.586 215.833H841.834L827.043 220.763H822.935L812.252 223.228H805.679L785.136 227.337H748.16L744.051 228.98H719.4L718.578 228.158L709.54 227.337L702.966 224.871H695.571L678.315 220.763L659.416 210.903C651.473 209.533 644.625 207.068 638.873 203.507L629.013 209.259L615.044 214.189L604.362 215.011L583.819 221.585L574.781 222.406L573.959 223.228H561.633L560.812 224.05L547.664 224.871L541.091 226.515H532.052L524.657 224.871H512.331C509.811 223.283 506.251 222.735 501.649 223.228L468.781 211.724L433.448 233.088L419.479 238.84L412.084 240.484H383.324C379.982 238.621 375.326 238.073 369.355 238.84L346.347 233.088L315.123 219.941L292.937 207.616L266.232 184.197L252.263 168.585L241.58 152.973L233.363 136.539L232.542 130.787L229.255 123.391L221.86 89.7015V24.7871L222.681 23.9653L223.503 11.6398L226.79 -4.79422L239.937 -49.1661L254.728 -77.104L262.945 -96.0031L276.914 -117.367L288.417 -132.158L297.867 -141.608L309.371 -146.538ZM462.618 101.616L449.471 107.368L445.363 113.942L442.897 126.267V142.701L447.006 152.562C451.388 157.492 457.14 161.327 464.262 164.066L479.052 145.166L484.804 130.376C484.256 127.089 484.53 125.172 485.626 124.624L484.804 122.98C484.256 120.241 484.53 118.598 485.626 118.05L484.804 112.298L473.3 101.616H462.618ZM645.858 108.19C640.928 111.477 637.367 116.133 635.176 122.159L635.997 142.701C637.093 148.179 639.01 152.562 641.749 155.849H644.214L654.075 150.097L659.827 142.701L663.935 125.446L664.757 114.763L657.362 109.011L645.858 108.19Z" fill="#FF6600"/>
<path opacity="0.992157" d="M172.968 -141.608L181.185 -140.786C185.458 -138.978 188.882 -136.376 191.457 -132.98L194.743 -124.763V-118.189C193.045 -112.437 189.895 -108.192 185.294 -105.453L172.147 -98.0575L155.302 -82.856L141.333 -64.7785L120.79 -34.3756L106 -4.79431L96.1391 9.99632L82.9919 38.7559L64.9144 92.9882L63.271 95.4533L59.9842 111.887L50.9455 138.182L47.6587 153.794V157.903L44.3719 168.585V175.158L43.5502 175.98L41.9068 196.523L41.0851 197.344V241.716L39.4417 246.646V270.476L41.0851 276.228L41.9068 295.949L43.5502 301.7L47.6587 334.569L59.1625 374.01L73.9532 408.522L102.713 447.553H104.356C103.754 449.032 104.164 449.579 105.589 449.196L113.806 454.126L118.325 458.646L121.612 466.041V475.08C119.585 481.27 116.161 486.063 111.341 489.459C107.889 492.582 102.411 493.677 94.9066 492.746L84.6353 485.762L80.1159 480.421L72.3098 474.258L45.1936 438.103L40.2634 429.886L33.6898 416.739L25.4728 393.731L21.3642 385.514L15.6123 368.258L13.9689 358.398L9.03872 342.786L8.21702 332.925L4.93021 318.135L4.10851 300.057L2.46511 295.127V288.553L0.821702 280.336V278.693V272.119L0 271.298V247.468L1.6434 238.429V194.058L3.28681 187.484V178.445L4.93021 172.693V166.941L6.57362 162.833L11.5038 134.073L18.8991 113.531L23.8294 90.5231L44.3719 29.7172L59.9842 -4.79431L65.7362 -13.0113L88.7438 -56.5615L95.3174 -63.9568L115.038 -94.3598L131.061 -112.848L159.821 -136.677C163.382 -139.143 167.764 -140.786 172.968 -141.608Z" fill="#FF6600"/>
<path opacity="0.992157" d="M223.914 495.211C230.816 495.431 235.609 497.759 238.293 502.196L243.224 512.056V521.917L244.045 522.738L244.867 538.351L246.51 544.924C245.689 551.224 245.963 556.428 247.332 560.537L246.51 561.358L245.689 585.188L244.867 586.009L244.045 598.335V599.978V606.552L244.867 607.374V609.017V632.025L247.332 645.994L258.014 677.218L269.518 701.869L277.735 711.73L285.13 725.699L293.347 735.559L298.278 746.241L346.347 805.815L362.781 818.962L375.929 825.536L394.006 837.861L437.556 860.869L471.246 873.194L478.641 877.303L490.967 881.411L510.688 890.45L516.44 891.272L525.478 895.38L541.091 899.489L564.098 907.706L590.393 913.458H602.718L603.54 914.279H613.4L614.222 915.101L615.044 914.279H622.439L623.261 915.101H632.3L633.121 915.923H637.23L642.982 917.566H650.377L656.951 919.21L659.416 918.388L662.702 919.21H688.997L689.819 918.388H712.826L720.222 916.744H733.369L739.121 915.101H740.764H743.229L753.09 910.993L758.842 910.171L774.454 903.597L815.539 893.737L821.291 890.45L830.33 888.807L853.337 880.59L872.236 869.907L876.345 869.086L893.601 860.047L903.461 857.582C907.679 853.857 912.883 851.118 919.073 849.365L953.996 821.016L958.104 814.853C959.583 815.456 960.131 815.045 959.748 813.621L974.538 800.474L986.453 787.737L989.329 785.683L1007.41 763.497L1020.96 749.939L1050.96 724.877L1069.86 702.691L1084.65 682.149L1088.75 673.932L1094.92 667.769C1097.55 665.194 1101.93 664.372 1108.06 665.304C1114.26 666.509 1119.05 669.111 1122.44 673.11L1124.91 678.862V692.831C1122.44 699.404 1119.16 705.156 1115.05 710.086L1086.29 745.831C1084.81 745.228 1084.26 745.639 1084.65 747.063L1062.87 773.768L1052.19 781.164C1038.38 796.009 1023.18 809.156 1006.58 820.605C1007.19 822.084 1006.78 822.632 1005.35 822.249L988.918 840.326L983.577 844.024L973.306 855.939L931.399 887.985L914.965 896.202L909.213 897.024L898.531 901.954L883.74 910.171L875.523 912.636L865.663 919.21L860.733 920.031L850.051 924.962L844.299 925.783L821.291 934L813.896 934.822L796.64 940.574L788.423 941.396L765.415 950.434L759.663 951.256L753.09 954.543C749.967 954.159 747.776 954.707 746.516 956.186H739.121L738.299 957.008L735.834 956.186L733.369 957.008L718.578 957.83L717.757 958.651L669.276 960.295L668.454 959.473L645.447 958.651L633.943 956.186L610.935 954.543L609.292 955.364L600.253 953.721H585.463C584.805 952.516 583.162 952.242 580.532 952.899L576.424 951.256L564.098 949.613L549.308 944.682L543.556 943.861L526.3 937.287L510.688 933.179L499.184 928.248L490.967 926.605L474.533 918.388L429.339 901.132L387.432 880.59L355.386 860.047L347.169 856.76L332.378 846.078L314.712 830.055L266.231 769.249L260.479 757.745L249.797 744.598L246.51 735.559L234.185 719.947L226.79 702.691L222.681 696.939L217.751 678.862L213.642 671.466L207.89 650.924V646.815L206.247 641.885L205.425 604.087C204.056 603.265 203.782 601.348 204.604 598.335L206.247 590.94V574.506L207.069 573.684C206.302 568.809 206.576 564.974 207.89 562.18L207.069 561.358V547.389L205.425 541.638L204.604 526.025L203.782 525.204V514.521C205.151 508.77 207.754 504.25 211.588 500.963L219.805 496.033L223.914 495.211Z" fill="#FF6600"/>
<path opacity="0.992157" d="M740.764 652.978H750.625L751.446 653.8H758.842L759.664 654.621L768.702 655.443C774.564 657.525 779.083 660.949 782.26 665.714C785.054 669.494 785.876 675.246 784.725 682.97L773.222 726.52L765.826 746.241L762.539 751.993L756.788 769.249L737.067 804.582L718.989 830.055L712.005 837.039L700.501 841.148H690.641L678.315 834.574L656.54 818.962L634.354 792.256L615.455 765.14L606.827 756.512L598.199 749.528L566.974 707.621C563.852 704.17 562.756 698.692 563.688 691.187C565.714 686.367 568.59 682.395 572.315 679.272L584.641 669.412L589.571 667.769C593.241 668.152 595.98 667.604 597.788 666.125H604.362L619.152 662.017H640.517L643.804 661.195L645.447 662.017L654.486 659.552L676.672 658.73L694.749 655.443H725.152L725.974 654.621H735.012L740.764 652.978ZM741.175 694.063L740.354 694.885H732.136L731.315 695.707H700.912L684.478 698.993L661.47 699.815L650.788 702.28H625.315L615.455 704.745L621.207 712.962L623.672 718.714L631.067 724.466L631.889 726.931L641.749 735.148C641.201 736.244 641.749 736.518 643.393 735.97L645.858 741.722L654.075 750.761L663.114 765.551L673.796 777.877L674.617 780.342L687.765 792.667L695.16 797.598L705.842 782.807L720.633 755.691L735.423 719.536L737.067 709.675L741.997 696.528L741.175 694.063Z" fill="#FF6600"/>
<path opacity="0.992157" d="M361.394 415.342C364.185 407.885 368.266 403.874 373.639 403.309L387.239 403.177L396.963 407.6L416.615 412.027L422.123 411.824L439.872 414.482L460.477 414.828L467.889 416.394L480.402 416.67L513.725 412.872L538.957 404.039L544.161 400.538C545.258 401.699 545.926 401.552 546.167 400.097C550.919 397.324 556.201 395.965 562.013 396.021C565.187 395.66 568.904 396.749 573.165 399.289C577.348 403.72 580.044 408.707 581.253 414.252L581.115 420.509L579.754 423.501L573.768 430.707L569.823 433.426C560.708 438.909 551.118 443.123 541.053 446.066C531.622 449.6 521.783 452.045 511.537 453.402L474.133 456.247C469.305 454.953 464.885 454.748 460.873 455.631L452.713 453.724L443.532 454.062L406.266 450.65L397.699 447.655L383.623 444.863L373.151 440.099L364.381 431.596L361.324 423.435L361.394 415.342Z" fill="#FF6600"/>
<path opacity="0.992157" d="M766.761 406.927C769.258 399.366 773.18 395.199 778.526 394.424L792.112 393.761L802 397.801L821.81 401.456L827.307 401.038L845.145 403L865.748 402.541L873.216 403.816L885.73 403.603L918.879 398.505L943.747 388.692L948.81 384.991C949.951 386.108 950.614 385.935 950.797 384.472C955.437 381.515 960.662 379.951 966.472 379.78C969.629 379.294 973.386 380.237 977.743 382.609C982.096 386.873 984.985 391.752 986.41 397.245L986.516 403.502L985.273 406.545L979.573 413.98L975.737 416.851C966.844 422.686 957.426 427.271 947.484 430.606C938.198 434.505 928.462 437.333 918.277 439.089L881.013 443.394C876.138 442.29 871.713 442.258 867.738 443.297L859.51 441.711L850.35 442.406L812.979 440.454L804.301 437.796L790.127 435.556L779.477 431.206L770.382 423.052L767.007 415.016L766.761 406.927Z" fill="#FF6600"/>
</svg>
