<svg width="694" height="165" viewBox="0 0 694 165" fill="none" xmlns="http://www.w3.org/2000/svg">
<path d="M0 160.352L0 4.39453C0 4.39453 2.01823 4.26432 6.05469 4.00391C10.1562 3.67839 15.4948 3.28776 22.0703 2.83203C28.7109 2.3763 35.9375 1.95312 43.75 1.5625C51.6276 1.10677 59.4076 0.748698 67.0898 0.488281C74.8372 0.16276 81.7383 0 87.793 0C100.423 0 111.133 1.66016 119.922 4.98047C128.711 8.23568 135.807 12.5651 141.211 17.9687C146.615 23.3724 150.553 29.3294 153.027 35.8398C155.566 42.3503 156.836 48.8607 156.836 55.3711C156.836 66.7643 153.939 76.5625 148.145 84.7656C142.35 92.9036 134.961 99.6419 125.977 104.98L168.359 160.352H91.2109L63.7695 115.137V160.352H0ZM63.3789 86.7187C76.0091 82.0312 85.0586 76.9531 90.5273 71.4844C96.0612 65.9505 98.8281 60.026 98.8281 53.7109C98.8281 48.4375 97.8516 44.8242 95.8984 42.8711C93.9453 40.918 91.5039 39.9414 88.5742 39.9414C86.6862 39.9414 84.7331 40.2669 82.7148 40.918C80.6966 41.5039 78.5807 42.2526 76.3672 43.1641L63.3789 48.5352V86.7187ZM195.059 108.594C195.449 108.659 197.272 109.245 200.527 110.352C203.848 111.393 207.852 112.598 212.539 113.965C217.227 115.267 221.914 116.439 226.602 117.48C231.354 118.457 235.391 118.945 238.711 118.945C241.576 118.945 243.919 118.522 245.742 117.676C247.565 116.829 248.477 115.267 248.477 112.988C248.477 110.514 247.174 108.268 244.57 106.25C241.966 104.232 238.613 102.148 234.512 100C230.475 97.8516 226.146 95.4102 221.523 92.6758C216.966 89.9414 212.637 86.6536 208.535 82.8125C204.499 78.9714 201.178 74.3815 198.574 69.043C195.97 63.6393 194.668 57.194 194.668 49.707C194.668 40.5273 196.589 32.7799 200.43 26.4648C204.271 20.0846 209.414 14.974 215.859 11.1328C222.37 7.22656 229.661 4.39453 237.734 2.63672C245.872 0.878906 254.206 0 262.734 0C269.961 0 276.797 0.390625 283.242 1.17187C289.688 1.95312 295.124 2.79948 299.551 3.71094C304.043 4.6224 306.875 5.24089 308.047 5.56641V50.3906C308.047 50.3906 306.68 50.0977 303.945 49.5117C301.276 48.9258 297.891 48.2747 293.789 47.5586C289.753 46.8424 285.553 46.1914 281.191 45.6055C276.895 45.0195 273.118 44.7266 269.863 44.7266C266.868 44.7266 264.622 45.2474 263.125 46.2891C261.628 47.3307 260.879 48.5677 260.879 50C260.879 51.1719 261.53 52.474 262.832 53.9062C264.134 55.2734 265.697 56.3477 267.52 57.1289C274.355 60.1237 280.801 63.1836 286.855 66.3086C292.91 69.4336 298.249 73.0469 302.871 77.1484C307.493 81.25 311.107 86.263 313.711 92.1875C316.38 98.0469 317.715 105.241 317.715 113.77C317.715 123.926 315.143 132.78 310 140.332C304.922 147.884 297.565 153.743 287.93 157.91C278.359 162.077 266.803 164.16 253.262 164.16C241.608 164.16 232.005 163.607 224.453 162.5C216.901 161.393 210.977 160.156 206.68 158.789C202.383 157.357 199.355 156.087 197.598 154.98C195.905 153.874 195.059 153.32 195.059 153.32V108.594ZM409.746 4.39453L434.062 53.3203L456.719 4.39453L513.945 4.39453L437.285 160.156C436.504 161.654 435.267 162.826 433.574 163.672C431.947 164.518 430.254 164.941 428.496 164.941C426.673 164.941 424.948 164.551 423.32 163.77C421.758 162.988 420.553 161.784 419.707 160.156L338.945 4.39453L409.746 4.39453ZM616.23 0C634.395 0 649.108 2.14844 660.371 6.44531C671.699 10.7422 680 17.5456 685.273 26.8555C690.547 36.1654 693.184 48.4049 693.184 63.5742C693.184 73.7305 691.263 83.0404 687.422 91.5039C683.646 99.9023 678.405 107.161 671.699 113.281C664.993 119.401 657.181 124.154 648.262 127.539C639.408 130.859 629.902 132.52 619.746 132.52C617.142 132.52 614.44 132.454 611.641 132.324C608.906 132.194 605.814 132.129 602.363 132.129V160.352L538.594 160.352V4.78516C553.763 3.28776 567.76 2.11589 580.586 1.26953C593.411 0.423177 605.293 0 616.23 0ZM626.582 40.5273C624.303 40.5273 621.732 41.1133 618.867 42.2852C616.068 43.457 613.366 44.8242 610.762 46.3867C608.223 47.8841 606.107 49.2187 604.414 50.3906C602.786 51.5625 601.973 52.1484 601.973 52.1484V88.9648L613.398 83.3984C619.974 80.1432 625.638 76.1393 630.391 71.3867C635.208 66.569 637.617 60.3516 637.617 52.7344C637.617 49.4792 636.641 46.6471 634.688 44.2383C632.799 41.7643 630.098 40.5273 626.582 40.5273Z" fill="#FF6600"/>
</svg>
