<svg width="959" height="254" viewBox="0 0 959 254" fill="none" xmlns="http://www.w3.org/2000/svg">
<path d="M885.612 223.059C888.41 222.151 891.39 222.008 894.552 222.629C897.74 223.221 900.763 224.79 903.62 227.337C906.157 229.598 907.829 231.979 908.637 234.478C909.444 236.977 909.541 239.392 908.928 241.724C908.37 244.052 907.312 246.091 905.752 247.841C903.984 249.824 901.758 251.293 899.074 252.249C896.39 253.205 893.481 253.387 890.349 252.792C887.242 252.168 884.143 250.478 881.053 247.723C877.116 244.214 875.165 240.591 875.199 236.854C875.263 233.143 876.491 229.946 878.882 227.264C880.597 225.339 882.841 223.937 885.612 223.059ZM87.7422 154.816L67.585 171.354L107.687 220.231L79.5107 243.349L39.4092 194.472L19.252 211.011L0 187.546L68.4912 131.352L87.7422 154.816ZM958.66 188.487L916.726 226.46L900.455 211.956L933.38 165.951L958.66 188.487ZM871.625 121.479L840.121 166.801C838.226 169.527 837.29 172.277 837.312 175.052C837.356 177.794 838.853 180.191 841.804 182.242C844.755 184.293 847.545 184.83 850.176 183.852C852.829 182.841 855.103 180.973 856.998 178.247L888.368 133.118L914.974 151.612L882.868 197.8C875.198 208.833 866.466 214.894 856.671 215.982C846.908 217.093 836.284 213.658 824.802 205.676C812.293 196.98 804.633 187.707 801.823 177.856C799.045 168.028 801.491 157.598 809.161 146.564L841.267 100.377L871.625 121.479ZM216.623 152.075L184.974 170.265L167.748 140.292L151.729 151.459L168.108 179.958L136.51 198.119L89.8818 116.989L121.48 98.8291L138.327 128.142L154.404 117.076L138.346 89.1357L169.995 70.9453L216.623 152.075ZM731.849 59.3115C738.023 57.3724 744.431 56.6583 751.073 57.168C757.767 57.6584 764.327 59.3768 770.754 62.3232C777.501 65.4163 783.314 69.3273 788.193 74.0566C793.124 78.7667 796.878 84.0761 799.455 89.9844C802.084 95.8734 803.345 102.167 803.239 108.865C803.185 115.544 801.547 122.399 798.323 129.43C795.198 136.247 791.077 141.814 785.962 146.129C780.863 150.409 775.171 153.451 768.887 155.254C762.603 157.057 756.087 157.679 749.339 157.12C742.642 156.542 736.098 154.789 729.706 151.858C723.705 149.107 718.362 145.389 713.677 140.706C709.043 136.003 705.375 130.648 702.673 124.639C700.006 118.646 698.62 112.295 698.516 105.587C698.428 98.8431 699.946 92.0625 703.071 85.2451C706.132 78.5696 710.141 73.0589 715.098 68.7139C720.09 64.3851 725.674 61.2506 731.849 59.3115ZM249.605 38.2158C251.785 37.4674 254.081 37.2373 256.492 37.5244C258.94 37.7989 261.093 38.7737 262.948 40.4492L339.125 108.584L294.181 124.016L287.684 116.459L263.742 124.679L263.757 134.462L224.631 147.896L239.787 48.7734C240.161 46.3737 241.284 44.2327 243.157 42.3506C245.018 40.4315 247.167 39.053 249.605 38.2158ZM765.032 90.833C763.115 89.954 760.64 89.9152 757.608 90.7168C754.628 91.4992 751.528 92.8714 748.309 94.833C745.141 96.7753 742.228 99.0496 739.572 101.656C736.933 104.227 735.002 106.845 733.781 109.508C732.609 112.064 732.315 114.487 732.899 116.774C733.519 119.078 735.445 120.971 738.676 122.452C740.558 123.315 742.979 123.329 745.939 122.495C748.916 121.625 751.997 120.202 755.182 118.224C758.366 116.246 761.268 113.945 763.889 111.322C766.545 108.715 768.484 106.08 769.705 103.417C770.844 100.932 771.131 98.5714 770.566 96.3359C770.001 94.1002 768.157 92.2656 765.032 90.833ZM658.244 23.8184L662.312 44.7314L676.531 28.6914L710.275 37.6836L667.441 85.3311L658.042 120.604L621.354 110.827L630.753 75.5547L617.875 13.0605L658.244 23.8184ZM440.337 94.1699L427.859 95.9111L375.769 70.7041L380.217 102.562L347.661 107.107L334.723 14.4326L344.124 13.1201L399.766 42.1504L394.727 6.05566L427.398 1.49414L440.337 94.1699ZM260.427 106.179L278.326 100.032L261.628 79.0029L260.427 106.179ZM495.621 1.57422L494.4 30.3174L518.159 2.53125L556.152 4.14551L524.271 42.2598L556.865 97.834L514.188 96.0215L496.04 62.1152L493.713 65.8281L492.47 95.0986L454.594 93.4902L458.564 0L495.621 1.57422Z" fill="#FF6600"/>
</svg>
