<svg width="809" height="222" viewBox="0 0 809 222" fill="none" xmlns="http://www.w3.org/2000/svg">
<path d="M738.958 202.892C740.604 202.847 742.224 203.032 743.818 203.45C745.498 203.924 746.949 204.56 748.17 205.357C750.177 206.666 751.668 208.384 752.643 210.512C753.674 212.553 753.45 214.708 751.971 216.976C751.003 218.459 749.801 219.54 748.363 220.219C746.983 220.811 745.497 221.086 743.907 221.044C742.261 221.09 740.67 220.86 739.134 220.356C737.598 219.851 736.175 219.172 734.866 218.319C732.947 217.067 731.456 215.348 730.394 213.163C729.275 211.065 729.426 208.926 730.849 206.745C731.702 205.436 732.82 204.486 734.2 203.894C735.725 203.272 737.312 202.938 738.958 202.892ZM52.1779 93.2124C54.2416 92.7774 56.1905 92.8453 58.0245 93.4155C59.9468 93.9304 61.6007 95.2903 62.9855 97.4956C64.3703 99.701 64.7623 102.284 64.1613 105.245C63.593 108.061 62.5174 110.951 60.9337 113.914C59.3828 116.732 57.605 119.386 55.6007 121.874C53.5965 124.363 51.8667 126.31 50.4122 127.715C53.9719 134.951 57.6641 142.105 61.4884 149.174C65.3455 156.1 69.4067 162.96 73.672 169.752C75.9431 173.369 78.275 176.886 80.6671 180.304C83.0593 183.722 85.3635 187.195 87.5792 190.724C88.5762 192.312 89.5074 194.187 90.3732 196.349C91.2718 198.368 91.8509 200.465 92.1095 202.639C92.4562 204.758 92.3278 206.807 91.7247 208.785C91.1216 210.762 89.8499 212.361 87.9093 213.58C85.6157 215.02 83.347 215.521 81.1046 215.084C79.0059 214.68 76.9778 213.802 75.0206 212.448C73.1517 211.038 71.448 209.402 69.9093 207.54C68.3152 205.589 66.9921 203.774 65.9396 202.098C62.4395 196.916 58.9833 191.706 55.5714 186.468C52.1042 181.142 48.6809 175.789 45.3019 170.408C42.4768 165.909 39.7066 161.498 36.9923 157.175C34.3663 152.797 31.6406 148.359 28.8156 143.86C27.6914 144.812 26.4955 145.747 25.2277 146.666C24.0482 147.53 22.7969 148.378 21.4738 149.208C20.4152 149.873 18.9475 150.672 17.0724 151.603C15.2302 152.391 13.349 153.019 11.4288 153.487C9.45323 153.866 7.58729 153.93 5.83118 153.68C4.01967 153.342 2.61538 152.378 1.61829 150.79C-0.0433978 148.144 -0.425704 145.186 0.472783 141.915C1.22771 138.613 2.75074 135.259 5.04017 131.853C7.36247 128.304 10.1596 124.825 13.4318 121.417C16.7368 117.866 20.1193 114.634 23.5802 111.723C27.0739 108.668 30.3255 106.011 33.3351 103.752C36.4329 101.438 38.8647 99.7275 40.629 98.6196C42.3051 97.5672 44.1248 96.5478 46.088 95.561C48.0841 94.4306 50.114 93.6474 52.1779 93.2124ZM798.219 114.319C800.7 113.947 803.119 114.529 805.475 116.066C807.569 117.432 808.673 119.458 808.786 122.144C809.044 124.799 808.627 127.823 807.534 131.214C806.586 134.575 805.147 138.114 803.22 141.832C801.38 145.606 799.394 149.223 797.262 152.683C795.274 156.112 793.297 159.238 791.332 162.06C789.454 164.939 787.975 167.208 786.894 168.866C785.983 170.262 784.644 172.124 782.876 174.454C781.165 176.695 779.225 179.098 777.055 181.663C774.942 184.14 772.597 186.591 770.022 189.015C767.59 191.409 765.17 193.498 762.761 195.285C760.409 196.984 758.138 198.177 755.949 198.864C753.818 199.463 751.966 199.251 750.396 198.227C748.476 196.975 747.416 194.977 747.215 192.235C747.158 189.462 747.589 186.322 748.507 182.817C749.569 179.282 751.005 175.555 752.815 171.636C754.624 167.718 756.508 163.971 758.466 160.398C760.48 156.737 762.382 153.439 764.173 150.502C766.108 147.536 767.587 145.267 768.611 143.697C769.636 142.126 770.917 140.164 772.453 137.808C774.047 135.365 775.813 132.848 777.751 130.257C779.777 127.723 781.862 125.289 784.005 122.957C786.293 120.593 788.628 118.634 791.01 117.079C793.392 115.523 795.795 114.603 798.219 114.319ZM707.122 68.395C710.202 67.385 713.136 67.5856 715.924 68.9965C717.969 70.0313 719.382 71.5056 720.165 73.4194C720.948 75.3332 721.288 77.4312 721.184 79.7133C721.219 81.9496 720.905 84.1846 720.242 86.4174C719.626 88.5571 718.895 90.4634 718.049 92.1362C716.779 94.6457 715.207 97.0611 713.332 99.3813C711.598 101.656 709.863 103.929 708.128 106.204C705.362 109.824 702.735 113.515 700.248 117.277C697.761 121.038 695.459 125.01 693.343 129.192C692.261 131.329 691.037 133.979 689.671 137.14C688.398 140.348 687.497 143.628 686.968 146.98C686.486 150.239 686.564 153.314 687.202 156.206C687.981 159.051 689.857 161.226 692.831 162.731C695.712 164.189 698.483 164.365 701.144 163.26C703.897 162.202 706.375 160.537 708.575 158.265C710.776 155.993 712.721 153.417 714.412 150.537C716.196 147.703 717.629 145.218 718.711 143.081C721.815 136.946 724.361 130.646 726.349 124.18C728.384 117.622 730.07 110.945 731.407 104.15C731.742 102.335 732.123 100.543 732.551 98.7749C733.072 97.0537 733.732 95.4028 734.531 93.8227C735.848 91.2205 737.744 89.3198 740.219 88.1206C742.787 86.9684 745.465 87.0983 748.253 88.5092C750.577 89.6851 752.245 91.6959 753.256 94.5424C754.407 97.343 755.02 100.63 755.095 104.404C755.217 108.085 754.918 112.02 754.199 116.209C753.573 120.445 752.761 124.587 751.763 128.635C750.812 132.59 749.699 136.289 748.425 139.73C747.243 143.218 746.182 146.008 745.24 148.1C744.863 149.077 744.439 150.03 743.969 150.959C743.546 151.796 743.075 152.725 742.558 153.748C740.629 157.558 738.444 161.414 736.003 165.315C733.609 169.123 730.983 172.698 728.125 176.039C725.267 179.379 722.132 182.346 718.719 184.938C715.446 187.484 711.896 189.424 708.069 190.756C704.29 191.996 700.258 192.465 695.974 192.165C691.689 191.864 687.177 190.515 682.437 188.117C675.466 184.589 670.201 179.882 666.643 173.995C663.177 168.155 660.995 161.855 660.096 155.096C659.244 148.244 659.556 141.281 661.034 134.207C662.56 127.041 664.875 120.39 667.98 114.255C668.309 113.605 668.614 113 668.897 112.443C669.179 111.885 669.484 111.398 669.812 110.98C670.892 109.075 672.372 106.497 674.251 103.246C676.223 100.041 678.453 96.6735 680.939 93.145C683.425 89.6166 686.097 86.0659 688.956 82.4926C691.908 78.9664 694.881 75.9755 697.874 73.521C700.96 71.1136 704.043 69.405 707.122 68.395ZM118.691 62.813C121.327 61.565 123.802 61.3153 126.115 62.0639C128.523 62.768 130.71 63.9801 132.677 65.6997C134.738 67.3748 136.536 69.3471 138.071 71.6167C139.607 73.8862 140.842 76.0097 141.778 77.9868L142.648 79.8227C146.347 87.637 149.881 95.5875 153.248 103.674C156.571 111.667 159.8 119.705 162.935 127.787C163.509 129.243 164.328 131.218 165.393 133.71C166.413 136.109 167.45 138.787 168.505 141.745C169.515 144.609 170.454 147.564 171.32 150.612C172.187 153.659 172.659 156.605 172.737 159.449C172.866 162.154 172.464 164.592 171.532 166.762C170.739 168.981 169.213 170.626 166.953 171.696C164.976 172.632 162.986 173.055 160.985 172.965C159.077 172.831 157.293 172.35 155.634 171.522C153.93 170.6 152.394 169.426 151.026 167.998C149.615 166.477 148.464 164.775 147.572 162.892C146.102 159.785 144.724 156.633 143.442 153.437C142.115 150.147 140.904 146.86 139.81 143.575L126.497 151.605C127.374 154.186 128.448 157.308 129.721 160.97C131.043 164.493 131.944 168.101 132.424 171.792C132.953 175.345 132.764 178.719 131.857 181.915C130.949 185.11 128.754 187.532 125.271 189.181C123.105 190.206 121.071 190.535 119.168 190.168C117.31 189.895 115.601 189.206 114.04 188.101C112.435 186.902 110.999 185.45 109.731 183.746C108.463 182.041 107.427 180.341 106.625 178.646C103.951 172.997 101.534 167.284 99.3751 161.506C97.1716 155.635 94.8269 149.829 92.3409 144.091C89.7213 138.071 86.9608 132.117 84.0587 126.23C81.2062 120.204 78.4476 114.135 75.7833 108.02C74.9415 105.998 73.8965 103.67 72.6486 101.034C71.4947 98.3529 70.6651 95.7482 70.1603 93.2212C69.7051 90.5558 69.8047 88.0887 70.4591 85.8198C71.2078 83.5061 73.0415 81.6576 75.9601 80.2758C80.0085 78.3593 83.5815 77.9933 86.6779 79.1782C89.7294 80.2689 92.4363 82.2145 94.799 85.0141C97.1172 87.7199 99.1238 90.8622 100.818 94.4399C102.467 97.9233 103.96 101.077 105.297 103.902C107.08 107.668 108.746 111.431 110.296 115.192C111.801 118.859 113.329 122.573 114.879 126.333L128.92 116.92C126.83 112.263 124.763 107.652 122.718 103.088C120.673 98.5246 118.721 93.916 116.864 89.2631C115.933 87.0531 114.935 84.7019 113.87 82.2094C112.806 79.7171 112.113 77.2792 111.791 74.896C111.47 72.5127 111.751 70.3051 112.633 68.2739C113.565 66.1041 115.584 64.2837 118.691 62.813ZM618.527 39.1987C624.588 37.1557 630.978 37.2536 637.698 39.4926C644.221 41.6658 649.064 45.2557 652.227 50.2622C655.521 55.2027 657.515 60.9176 658.207 67.4067C659.031 73.8299 658.835 80.6815 657.617 87.9614C656.498 95.2741 654.786 102.389 652.482 109.307C649.913 117.015 646.686 124.066 642.8 130.457C639.046 136.782 634.714 142.036 629.807 146.22C624.998 150.437 619.712 153.287 613.947 154.77C608.282 156.286 602.286 155.991 595.961 153.883C589.933 151.875 585.206 148.597 581.779 144.052C578.32 139.606 575.948 134.369 574.662 128.341C573.509 122.248 573.31 115.593 574.067 108.379C574.922 101.198 576.584 93.9015 579.054 86.4897C581.359 79.5719 584.438 72.8017 588.291 66.1801C592.243 59.5918 596.755 53.9588 601.827 49.2807C606.899 44.6025 612.467 41.2418 618.527 39.1987ZM195.258 33.7846C199.039 32.612 202.584 32.4397 205.895 33.2671C209.205 34.0944 212.337 35.5767 215.29 37.7143C218.243 39.852 220.972 42.4955 223.476 45.645C225.949 48.6951 228.203 51.9223 230.24 55.3256C232.346 58.5987 234.238 61.8841 235.915 65.1811C237.692 68.4472 239.245 71.3465 240.575 73.8784C243.874 79.9441 247.006 86.1709 249.969 92.559C252.901 98.8476 255.4 105.325 257.468 111.991C258.085 113.981 258.627 116.43 259.093 119.339C259.658 122.218 259.845 125.104 259.652 127.999C259.429 130.795 258.749 133.351 257.613 135.666C256.447 137.882 254.47 139.423 251.685 140.287C248.004 141.428 244.802 140.949 242.078 138.849C239.454 136.718 237.173 133.936 235.235 130.501C233.267 126.968 231.581 123.291 230.179 119.473C228.876 115.624 227.82 112.57 227.011 110.313C220.218 113.729 213.478 116.964 206.791 120.02C207.302 122.37 207.733 125.344 208.086 128.943C208.538 132.511 208.562 136.103 208.156 139.718C207.82 143.204 206.912 146.431 205.433 149.398C204.053 152.334 201.821 154.28 198.737 155.237C196.35 155.977 194.197 155.718 192.279 154.458C190.431 153.069 188.788 151.288 187.351 149.117C185.914 146.945 184.71 144.646 183.739 142.22C182.838 139.665 182.124 137.541 181.6 135.85C179.841 130.179 178.561 124.468 177.759 118.718C176.926 112.869 176.257 107.023 175.754 101.181C175.456 98.1108 175.203 94.481 174.994 90.2924C174.786 86.1038 174.746 81.7537 174.873 77.2426C175.069 72.6014 175.496 67.9978 176.151 63.4321C176.876 58.7358 177.989 54.4097 179.488 50.4546C180.988 46.4994 183.022 43.0334 185.588 40.0561C188.155 37.0788 191.378 34.9881 195.258 33.7846ZM521.912 7.97897C523.809 6.97253 525.934 6.70137 528.284 7.16451C530.941 7.6881 533.09 9.17301 534.732 11.6196C536.393 13.9642 537.688 16.8208 538.617 20.1889C539.648 23.5771 540.353 27.273 540.733 31.2758C541.112 35.2787 541.348 39.2002 541.441 43.0405C541.533 46.8808 541.533 50.3845 541.44 53.5512C541.346 56.7177 541.334 59.2099 541.401 61.0278C542.111 59.5753 543.228 57.4065 544.752 54.5219C546.398 51.5551 548.259 48.312 550.332 44.7924C552.508 41.2929 554.857 37.7211 557.38 34.0776C560.005 30.4542 562.611 27.1989 565.197 24.311C567.886 21.4434 570.555 19.2089 573.206 17.6079C575.877 15.9046 578.389 15.2844 580.739 15.7475C582.272 16.0496 583.439 16.8635 584.239 18.1889C585.04 19.5145 585.545 20.9947 585.754 22.6284C586.065 24.2819 586.162 25.9463 586.044 27.6215C585.926 29.297 585.757 30.6975 585.535 31.8217C584.649 36.3186 583.059 41.1546 580.766 46.3296C578.574 51.5247 576.015 56.7005 573.088 61.8569C570.161 67.0133 567.111 71.9864 563.938 76.7758C560.764 81.5652 557.865 85.7716 555.24 89.395C553.775 91.4421 551.934 94.0523 549.716 97.2251C547.621 100.316 545.27 103.622 542.665 107.143C540.06 110.664 537.293 114.206 534.361 117.769C531.552 121.25 528.711 124.353 525.838 127.079C523.164 129.538 520.542 131.493 517.973 132.947L516.945 133.515C514.388 134.877 512.007 135.342 509.804 134.908C506.533 134.263 504.424 132.573 503.477 129.838C502.611 127.226 502.47 124.438 503.054 121.474C503.618 118.613 504.672 115.688 506.216 112.702C507.882 109.633 509.743 106.654 511.798 103.768C513.955 100.902 516.194 98.158 518.516 95.5366C520.939 92.9353 523.15 90.6105 525.146 88.562C523.202 87.6483 521.391 86.3355 519.711 84.6245C518.031 82.9133 516.912 81.0467 516.355 79.0258C515.424 75.1267 514.533 70.7575 513.682 65.9184C512.83 61.0793 512.142 56.2193 511.617 51.3383C511.215 46.3753 511.008 41.5034 510.994 36.7231C511.001 31.8406 511.386 27.4574 512.151 23.5737C512.514 21.7341 513.111 19.781 513.943 17.7153C514.794 15.5476 515.861 13.6343 517.144 11.976C518.548 10.2357 520.138 8.9033 521.912 7.97897ZM330.657 5.95943C333.235 5.58825 335.593 6.24845 337.731 7.9399C339.869 9.63157 341.779 11.9352 343.462 14.8501C345.13 17.6619 346.599 20.9234 347.87 24.6342C349.126 28.2419 350.22 31.8205 351.152 35.3696C352.085 38.9188 352.826 42.2328 353.374 45.311C353.923 48.389 354.323 50.8044 354.575 52.5571C354.902 54.8254 355.266 58.0883 355.669 62.3452C356.057 66.499 356.305 71.1464 356.414 76.2876C356.611 81.3106 356.574 86.5255 356.3 91.9321C356.011 97.2357 355.346 102.121 354.305 106.585C353.264 111.05 351.759 114.845 349.788 117.97C347.803 120.992 345.161 122.741 341.861 123.216C338.768 123.662 335.807 123.194 332.977 121.812C330.132 120.327 327.493 118.445 325.06 116.165C322.612 113.781 320.399 111.205 318.422 108.438C316.445 105.671 314.762 103.124 313.375 100.798C310.453 95.8519 307.545 91.0082 304.652 86.268C301.745 81.4247 298.932 76.5147 296.216 71.5385L296.84 75.8686C297.478 80.302 298.065 84.7436 298.601 89.1919C299.224 93.522 299.539 97.8967 299.544 102.316C299.59 104.098 299.629 106.198 299.661 108.614C299.782 110.912 299.748 113.232 299.559 115.575C299.37 117.917 298.901 120.142 298.152 122.249C297.507 124.342 296.425 125.971 294.909 127.136C294.056 127.785 293.224 128.221 292.414 128.443C291.707 128.65 290.904 128.923 290.006 129.263L289.542 129.331C287.171 129.672 285.049 129.188 283.177 127.879C281.29 126.467 279.601 124.605 278.11 122.294C276.605 119.88 275.269 117.178 274.102 114.189C273.023 111.082 272.062 108.063 271.219 105.132C270.464 102.084 269.849 99.2779 269.375 96.7153C268.901 94.1529 268.552 92.0986 268.329 90.5522C267.988 88.1808 267.594 84.7112 267.147 80.145C266.685 75.4758 266.362 70.3131 266.179 64.6567C266.099 58.9852 266.15 53.1362 266.335 47.1108C266.623 41.0708 267.302 35.5531 268.371 30.5581C269.426 25.4598 270.976 21.2374 273.02 17.8911C275.049 14.4418 277.713 12.4796 281.012 12.0044C284.208 11.5441 287.222 12.3726 290.053 14.4907C292.987 16.5939 295.678 19.2063 298.127 22.3266C300.576 25.4468 302.738 28.7661 304.612 32.2846C306.487 35.8032 308.067 38.7329 309.352 41.0737C311.802 45.6671 314.201 50.2682 316.549 54.8764C318.882 59.3816 321.177 63.9979 323.437 68.7241C323.57 68.9156 323.858 69.4524 324.301 70.3354C324.744 71.2188 325.253 72.1982 325.828 73.2729C326.419 74.4508 327.135 75.7686 327.977 77.226C327.784 75.8857 327.598 74.965 327.421 74.4643C327.332 73.8457 327.258 73.3299 327.198 72.9174C327.124 72.402 327.035 71.7835 326.931 71.062C326.827 70.3403 326.663 69.2061 326.441 67.6596C325.847 64.2721 325.254 60.8841 324.661 57.4965C324.171 54.0944 323.689 50.7438 323.214 47.4448C323.006 46.0013 322.716 43.9901 322.345 41.4126C322.077 38.8202 321.839 36.0654 321.629 33.1489C321.508 30.1146 321.489 27.0654 321.574 24.0014C321.659 20.9372 321.995 18.1519 322.581 15.6469C323.256 13.0243 324.203 10.8358 325.424 9.08151C326.748 7.31228 328.492 6.27129 330.657 5.95943ZM625.301 71.7592C623.423 71.1336 621.546 71.3316 619.668 72.353C617.889 73.4073 616.143 75.0215 614.431 77.1958C612.751 79.2712 611.203 81.7747 609.787 84.7065C608.404 87.5394 607.202 90.4878 606.182 93.5512C605.029 97.01 604.075 100.535 603.318 104.125C602.659 107.749 602.313 111.093 602.28 114.157C602.248 117.22 602.595 119.806 603.319 121.914C604.143 124.054 605.494 125.438 607.371 126.064C609.545 126.788 611.637 126.277 613.647 124.531C615.656 122.785 617.517 120.496 619.23 117.663C621.041 114.863 622.588 111.865 623.872 108.669C625.255 105.507 626.309 102.839 627.033 100.665C627.922 97.9963 628.663 95.1135 629.256 92.0171C629.947 88.9536 630.309 86.0547 630.342 83.3208C630.407 80.4879 630.078 78.0167 629.353 75.9087C628.628 73.8009 627.277 72.4178 625.301 71.7592ZM391.42 0.000450568C394.649 0.0250802 397.036 1.18921 398.581 3.49264C400.23 5.79679 401.355 8.56571 401.955 11.7993C402.556 15.0331 402.791 18.3686 402.66 21.8051C402.634 25.2425 402.612 28.1073 402.595 30.3989C402.545 36.9612 402.339 43.5226 401.977 50.0825C405.016 47.6055 407.955 44.7628 410.792 41.5551C413.733 38.3483 416.31 35.0865 418.523 31.77C419.892 29.8012 421.475 27.1049 423.272 23.6811C425.069 20.153 427.022 16.782 429.13 13.5688C431.239 10.2514 433.552 7.40453 436.07 5.02779C438.589 2.54691 441.255 1.31694 444.068 1.33834C447.088 1.36135 449.269 2.26341 450.61 4.0444C452.055 5.7221 452.768 7.96735 452.746 10.7797C452.715 14.9463 452.005 19.2121 450.617 23.5766C449.334 27.9419 447.582 32.2514 445.362 36.5053C443.143 40.6552 440.612 44.6464 437.771 48.479C435.034 52.2082 432.249 55.4692 429.415 58.2602C432.294 63.178 435.017 68.1469 437.583 73.1665C440.15 78.0819 442.716 83.0493 445.282 88.0688C446.207 89.7426 447.078 91.5726 447.897 93.5581C448.819 95.5443 449.637 97.5816 450.351 99.6704C451.064 101.759 451.621 103.847 452.022 105.933C452.527 108.02 452.772 110.002 452.758 111.876C452.736 114.793 451.988 117.131 450.517 118.891C449.044 120.755 446.797 121.675 443.776 121.652C441.381 121.634 439.147 120.888 437.075 119.414C435.107 117.94 433.245 116.155 431.49 114.058C429.841 111.858 428.348 109.555 427.012 107.149C425.78 104.744 424.755 102.653 423.935 100.875C421.781 96.484 419.626 92.0921 417.472 87.7006C415.422 83.3101 413.372 78.8673 411.323 74.3725L401.904 80.0825C401.986 83.104 401.806 86.1235 401.366 89.1411C400.927 92.1585 400.592 95.1768 400.36 98.1958C400.136 100.277 399.754 102.567 399.214 105.063C398.779 107.455 398.033 109.741 396.975 111.92C395.917 113.996 394.498 115.756 392.716 117.201C390.934 118.645 388.741 119.358 386.137 119.338C383.741 119.32 381.765 118.837 380.21 117.887C378.656 116.834 377.363 115.522 376.333 113.952C375.408 112.382 374.744 110.606 374.343 108.623C373.941 106.641 373.748 104.608 373.764 102.525L373.774 101.275C373.82 95.1293 374.18 88.9859 374.852 82.8452C375.628 76.6011 376.145 70.355 376.401 64.1069C376.671 55.8797 376.994 47.6526 377.369 39.4262C377.744 31.1997 378.223 22.9735 378.807 14.7485C378.925 12.8745 379.252 11.0542 379.786 9.28756C380.321 7.52086 381.113 5.96378 382.165 4.61764C383.218 3.16728 384.477 2.03067 385.942 1.20846C387.51 0.387038 389.337 -0.0154017 391.42 0.000450568ZM207.217 64.4301C205.543 62.5499 203.81 61.8874 202.02 62.4428C201.025 62.7515 200.296 63.7411 199.832 65.4116C199.338 66.9826 199.067 68.9208 199.019 71.226C198.939 73.4318 198.987 75.8711 199.161 78.5434C199.435 81.185 199.728 83.7118 200.04 86.1235C200.352 88.5352 200.702 90.7174 201.089 92.6694C201.445 94.5217 201.697 95.8612 201.845 96.688C207.66 94.339 213.298 91.7724 218.76 88.9878L217.418 84.6596C217.048 83.4657 216.346 81.5566 215.314 78.9321C214.35 76.1775 213.204 73.5341 211.873 71.0024C210.512 68.371 208.959 66.18 207.217 64.4301Z" fill="#FF6600"/>
</svg>
