<svg width="948" height="970" viewBox="0 0 948 970" fill="none" xmlns="http://www.w3.org/2000/svg">
<path d="M857.47 804.749L945.941 840.817L947.794 841.572L947.038 843.424L932.624 878.782L931.869 880.635L930.017 879.879L891.206 864.058L888.611 870.422L927.268 886.182L929.12 886.938L928.365 888.789L916.081 918.92L915.326 920.772L913.474 920.018L874.817 904.258L871.596 912.16L913.096 929.079L914.948 929.835L914.193 931.687L899.685 967.275L898.93 969.127L897.077 968.372L805.915 931.207L804.062 930.452L804.817 928.6L854.862 805.846L855.617 803.994L857.47 804.749ZM809.276 928.258L896.735 963.913L909.734 932.028L868.234 915.109L866.382 914.354L867.137 912.503L871.869 900.896L872.624 899.044L874.476 899.799L913.132 915.558L923.905 889.131L885.25 873.372L883.397 872.616L884.152 870.765L888.258 860.695L889.013 858.843L890.865 859.599L929.674 875.421L942.579 843.766L857.811 809.208L809.276 928.258ZM760.054 756.343L806.209 779.482L807.997 780.379L807.101 782.166L766.479 863.19L804.539 882.271L806.327 883.168L805.431 884.956L787.537 920.648L786.641 922.437L784.853 921.54L698.85 878.423L697.062 877.526L697.958 875.739L757.369 757.234L758.266 755.446L760.054 756.343ZM702.43 875.743L784.856 917.067L800.958 884.951L762.898 865.87L761.111 864.974L762.007 863.186L802.628 782.161L760.049 760.813L702.43 875.743ZM628.621 674.776L627.624 676.511L628.621 674.777C628.62 674.777 628.621 674.777 628.622 674.777C628.623 674.778 628.624 674.779 628.625 674.779C628.628 674.781 628.631 674.783 628.637 674.786C628.637 674.786 628.642 674.789 628.656 674.797C628.664 674.801 628.655 674.797 628.662 674.801L628.668 674.804L628.669 674.805C628.689 674.816 628.663 674.802 628.684 674.813C628.722 674.836 628.793 674.876 628.873 674.922C628.952 674.967 629.067 675.034 629.188 675.104C629.251 675.14 629.149 675.081 629.212 675.117C629.229 675.127 629.206 675.114 629.224 675.124C629.23 675.128 629.23 675.128 629.236 675.131C629.34 675.191 629.181 675.1 629.286 675.16C629.356 675.2 629.32 675.179 629.393 675.221C629.397 675.224 629.443 675.249 629.449 675.253C629.47 675.265 629.442 675.249 629.463 675.262C629.473 675.268 629.467 675.264 629.478 675.27C629.479 675.27 629.49 675.277 629.492 675.278C629.469 675.265 629.453 675.255 629.507 675.286C629.509 675.287 629.534 675.302 629.537 675.304C629.544 675.308 629.549 675.311 629.552 675.312C629.563 675.319 629.556 675.315 629.567 675.321C629.57 675.323 629.58 675.329 629.582 675.33L629.629 675.356L629.726 675.412C629.755 675.429 629.73 675.415 629.759 675.432C629.795 675.453 629.756 675.43 629.793 675.451C629.808 675.46 629.794 675.452 629.81 675.461L629.827 675.471C629.942 675.537 629.78 675.444 629.896 675.511C629.929 675.529 629.882 675.503 629.914 675.521C629.917 675.523 629.921 675.525 629.924 675.526C629.927 675.528 629.93 675.53 629.933 675.531C629.941 675.536 629.96 675.547 629.969 675.552C630.072 675.611 629.938 675.535 630.042 675.595C630.129 675.645 630.031 675.588 630.118 675.639C630.13 675.645 630.145 675.653 630.157 675.66C630.165 675.665 630.168 675.667 630.176 675.672C630.199 675.685 630.173 675.669 630.196 675.683L630.245 675.712C630.248 675.714 630.253 675.715 630.256 675.717C630.258 675.718 630.272 675.727 630.275 675.729L630.357 675.775C630.384 675.791 630.496 675.856 630.526 675.873L630.614 675.924L630.682 675.962C630.685 675.964 630.689 675.967 630.692 675.969C630.696 675.971 630.7 675.973 630.704 675.976C630.885 676.08 630.705 675.976 630.889 676.082L630.912 676.096C630.916 676.098 630.921 676.1 630.925 676.103L630.96 676.123L631.009 676.15C631.013 676.153 631.017 676.155 631.021 676.157C631.024 676.159 631.029 676.162 631.033 676.164C631.054 676.176 631.061 676.18 631.082 676.192C631.086 676.194 631.103 676.205 631.106 676.207C631.11 676.209 631.127 676.218 631.131 676.221C631.149 676.231 631.163 676.24 631.182 676.25C631.185 676.252 631.19 676.255 631.193 676.257C631.197 676.259 631.202 676.262 631.206 676.265C631.216 676.27 631.221 676.274 631.231 676.279C631.236 676.282 631.24 676.284 631.244 676.286C631.248 676.289 631.253 676.292 631.257 676.294C631.281 676.307 631.259 676.295 631.282 676.309C631.433 676.395 631.338 676.34 631.491 676.429C631.538 676.455 631.498 676.432 631.545 676.459C631.549 676.462 631.553 676.464 631.558 676.467L631.708 676.553L631.875 676.649C631.967 676.702 631.841 676.629 631.933 676.682C632.001 676.721 632.093 676.775 632.164 676.815C632.273 676.878 632.174 676.821 632.283 676.884C632.331 676.912 632.356 676.926 632.404 676.954C632.453 676.982 632.556 677.041 632.622 677.079L634.822 678.298C637.179 679.609 640.005 681.195 643.299 683.055C647.699 685.538 652.459 688.279 657.578 691.276H657.577C662.717 694.222 667.758 697.171 672.7 700.124L676.319 702.254C679.821 704.328 682.972 706.238 685.77 707.983C699.771 716.719 710.271 724.772 717.171 732.151L717.812 732.835C724.356 739.895 728.341 746.661 729.417 753.125C730.546 759.691 729.273 765.919 725.654 771.719C722.238 777.195 717.84 781.013 712.442 783.014C708.319 784.55 703.522 785.143 698.099 784.865C700.099 787.778 701.836 790.919 703.311 794.283C705.504 799.289 706.35 804.856 705.906 810.936L705.905 810.935C705.479 817.13 702.888 823.893 698.338 831.186C694.098 837.981 689.097 842.862 683.282 845.644C677.629 848.398 671.589 849.604 665.198 849.263L665.19 849.262H665.182C658.941 848.878 652.6 847.507 646.166 845.165L646.159 845.162L646.151 845.159C639.817 842.796 633.642 839.968 627.626 836.678C621.664 833.417 616.129 830.194 611.022 827.008C609.356 825.968 606.667 824.225 602.969 821.787V821.786C601.142 820.581 599.19 819.29 597.112 817.912L590.504 813.521C585.891 810.447 581.293 807.349 576.71 804.229C572.136 801.114 568.028 798.291 564.388 795.759C560.766 793.303 558.126 791.493 556.479 790.334L554.933 789.245L555.934 787.64L625.927 675.452L626.948 673.814L628.621 674.776ZM560.333 788.144C561.363 788.857 562.62 789.72 564.105 790.731L566.632 792.448L566.643 792.455L566.652 792.462C570.284 794.988 574.388 797.809 578.961 800.923C583.533 804.036 588.12 807.125 592.722 810.191L599.323 814.579C601.398 815.955 603.347 817.244 605.171 818.447H605.17C608.866 820.884 611.519 822.603 613.14 823.614C618.174 826.755 623.642 829.94 629.546 833.169C635.396 836.369 641.398 839.116 647.55 841.411H647.549C653.654 843.632 659.613 844.911 665.428 845.269H665.427C671.149 845.572 676.505 844.497 681.53 842.049L681.538 842.045L681.545 842.042C686.502 839.675 690.986 835.412 694.944 829.067C699.297 822.091 701.552 815.965 701.916 810.653V810.645C702.319 805.121 701.543 800.218 699.646 795.889C697.671 791.381 695.205 787.332 692.251 783.735L689.047 779.835L694.053 780.482C700.971 781.377 706.603 780.921 711.047 779.266L711.05 779.265C715.49 777.62 719.234 774.453 722.261 769.602C725.379 764.603 726.431 759.366 725.475 753.803L725.473 753.791C724.552 748.244 720.947 741.951 714.268 734.902L714.258 734.893C707.702 727.879 697.532 720.037 683.651 711.377C679.963 709.076 675.64 706.476 670.682 703.577L670.673 703.572L670.665 703.567C665.734 700.621 660.703 697.679 655.572 694.738L655.557 694.729C650.453 691.74 645.711 689.01 641.332 686.538C636.945 684.062 633.398 682.076 630.688 680.581L630.673 680.572L630.658 680.563C630.653 680.561 630.63 680.548 630.626 680.546C630.6 680.531 630.621 680.543 630.595 680.527C630.518 680.483 630.61 680.536 630.533 680.491L630.471 680.456C630.466 680.453 630.461 680.45 630.456 680.447L630.425 680.43C630.42 680.427 630.415 680.424 630.41 680.421C630.367 680.396 630.392 680.411 630.349 680.386C630.28 680.346 630.388 680.408 630.319 680.368C630.303 680.359 630.305 680.361 630.289 680.352L630.229 680.316C630.099 680.242 630.3 680.357 630.17 680.282C630.011 680.191 629.862 680.105 629.713 680.02L629.604 679.957C629.49 679.892 629.61 679.961 629.496 679.896L629.391 679.835C629.381 679.829 629.348 679.81 629.339 679.805L629.288 679.775C629.172 679.708 628.999 679.61 628.894 679.549C628.726 679.452 628.473 679.306 628.299 679.206L560.333 788.144ZM627.342 773.324C629.431 773.546 632.106 773.738 635.377 773.898C638.748 774.064 642.124 774.433 645.504 775.007C648.98 775.597 651.956 776.605 654.352 778.1C656.581 779.49 658.261 781.242 659.217 783.4H659.216C660.376 785.939 659.84 788.607 658.271 791.121C655.985 794.786 652.879 797.227 648.967 798.273C645.347 799.244 641.102 799.365 636.292 798.73L636.281 798.729L636.271 798.728C631.616 798.062 626.265 797.118 620.221 795.899V795.9L615.68 795.023L612.82 794.472L614.361 792.001L625.434 774.254L626.097 773.191L627.342 773.324ZM619.296 791.647L620.979 791.973L620.986 791.974L620.995 791.976C626.989 793.184 632.264 794.113 636.825 794.766C641.292 795.354 644.974 795.204 647.932 794.411L647.933 794.41C650.753 793.656 653.063 791.912 654.878 789.004C655.998 787.208 656.005 785.986 655.572 785.05L655.565 785.035L655.56 785.021C654.999 783.754 653.949 782.563 652.234 781.493C650.405 780.352 647.964 779.481 644.835 778.95C641.609 778.403 638.391 778.051 635.181 777.894C632.471 777.76 630.132 777.602 628.17 777.423L619.296 791.647ZM538.97 613.996C542.533 612.425 546.372 612.109 550.411 612.979H550.412C554.42 613.792 557.999 615.433 561.116 617.905C563.919 620.128 566.131 622.929 567.754 626.275C569.485 629.787 570.026 633.525 569.377 637.425L546.297 780.35L545.753 783.718L543.08 781.599L490.331 739.771L489.269 738.929L489.658 737.63L493.319 725.402L467.404 704.854L456.947 711.572L455.744 712.346L454.624 711.457L408.704 675.045L406.114 672.992L409.136 671.65L538.965 613.998L538.97 613.996ZM549.591 616.894C546.287 616.178 543.309 616.455 540.583 617.656L540.582 617.655L413.778 673.964L455.988 707.434L466.446 700.716L467.649 699.942L468.77 700.831L496.868 723.111L497.93 723.954L497.541 725.252L493.879 737.479L542.891 776.343L565.43 636.778L565.431 636.769C565.944 633.681 565.522 630.793 564.167 628.044L563.897 627.505C562.553 624.903 560.796 622.757 558.631 621.04C556.025 618.974 553.03 617.592 549.616 616.899L549.591 616.894ZM653.558 735.088C655.229 735.117 657.229 735.23 659.55 735.424C661.93 735.623 664.325 736.003 666.736 736.562H666.737C669.269 737.094 671.484 737.912 673.326 739.062C675.291 740.288 676.793 742.075 677.866 744.317C679.178 746.985 678.905 749.736 677.299 752.312C675.038 755.936 671.696 758.232 667.415 759.179C663.373 760.072 658.844 760.221 653.857 759.673L653.847 759.672C649.05 759.118 644.151 758.367 639.148 757.418L636.277 756.873L637.824 754.394L649.248 736.083L649.687 735.381L650.493 735.193C650.733 735.138 650.999 735.126 651.086 735.121C651.243 735.113 651.438 735.107 651.661 735.103C652.111 735.093 652.734 735.088 653.521 735.087H653.539L653.558 735.088ZM652.082 739.097L642.776 754.012C646.686 754.698 650.525 755.261 654.294 755.696C658.951 756.208 663.028 756.051 666.552 755.272C669.836 754.547 672.241 752.862 673.905 750.194C674.871 748.646 674.908 747.358 674.271 746.069L674.265 746.057L674.259 746.045C673.464 744.383 672.436 743.222 671.209 742.456C669.859 741.614 668.112 740.939 665.915 740.478L665.894 740.473L665.873 740.468C663.629 739.945 661.41 739.594 659.217 739.41C656.952 739.221 655.046 739.114 653.492 739.087C652.92 739.088 652.451 739.092 652.082 739.097ZM651.229 739.12H651.23L651.232 739.119C651.231 739.119 651.23 739.12 651.229 739.12ZM522.293 665.625L509.964 701.614L509.047 704.291L506.829 702.533L485.82 685.874L483.52 684.05L486.061 682.577L519.397 663.247L524.027 660.562L522.293 665.625ZM490.605 684.563L507.097 697.64L516.774 669.391L490.605 684.563ZM416.595 493.133L506.84 580.356L508.278 581.747L506.888 583.185L477.006 614.102L475.616 615.54L474.178 614.15L449.055 589.869L388.2 652.832L386.811 654.271L385.372 652.88L348.248 616.998L346.81 615.608L348.199 614.17L409.054 551.207L383.933 526.926L382.494 525.536L383.885 524.098L413.767 493.181L415.157 491.743L416.595 493.133ZM388.15 525.439L413.272 549.721L414.711 551.111L413.321 552.549L352.466 615.512L386.714 648.613L447.569 585.651L448.959 584.213L450.397 585.603L475.52 609.884L502.622 581.842L415.253 497.397L388.15 525.439ZM301.682 355.9L361.525 430.378L362.778 431.938L361.22 433.19L331.454 457.106L329.896 458.359L328.643 456.801L302.391 424.129L297.031 428.435L323.18 460.977L324.433 462.536L322.874 463.788L297.509 484.17L295.949 485.423L294.696 483.863L268.549 451.321L261.896 456.667L289.968 491.604L291.221 493.162L289.661 494.415L259.702 518.487L258.143 519.74L256.89 518.182L195.227 441.438L193.974 439.88L195.532 438.627L298.87 355.594L300.429 354.341L301.682 355.9ZM199.597 440.492L258.755 514.116L285.597 492.549L257.525 457.613L256.272 456.055L257.832 454.802L267.603 446.951L269.162 445.698L270.414 447.258L296.562 479.799L318.809 461.923L292.661 429.382L291.409 427.822L292.968 426.569L301.444 419.759L303.004 418.506L304.256 420.065L330.508 452.735L357.155 431.324L299.815 359.965L199.597 440.492ZM202.342 200.271L212.543 216.312L212.968 216.979L212.82 217.758L196.773 302.306L281.091 325.07L281.841 325.272L282.258 325.928L292.103 341.407L293.176 343.095L291.488 344.168L179.63 415.309L177.942 416.382L176.869 414.694L147.603 368.677L146.529 366.989L148.217 365.916L180.139 345.613L135.676 337.878L133.512 337.502L134.088 335.383L145.585 293.139L114.504 312.906L112.816 313.98L111.743 312.292L87.1084 273.559L86.0352 271.871L87.7227 270.798L199.58 199.657L201.269 198.584L202.342 200.271ZM91.5566 273.1L114.044 308.458L147.799 286.991L152.158 284.218L150.802 289.204L138.524 334.313L185.915 342.558L191.005 343.443L186.646 346.216L152.05 368.218L179.171 410.859L287.653 341.865L279.298 328.729L193.942 305.685L192.153 305.201L192.499 303.381L208.741 217.789L200.039 204.106L91.5566 273.1ZM168.812 135.564L192.335 181.525L193.247 183.306L191.466 184.217L73.4619 244.615L71.6816 245.526L70.7695 243.746L47.2461 197.785L46.335 196.005L48.1152 195.094L166.12 134.695L167.9 133.784L168.812 135.564ZM51.7178 197.742L73.4189 240.143L187.862 181.567L166.162 139.167L51.7178 197.742ZM112.556 1.8457L160.917 117.662L161.688 119.508L159.842 120.278L120.164 136.847L118.318 137.617L117.548 135.771L104.084 103.53L23.2812 137.271L21.4365 138.042L20.665 136.197L0.770508 88.5527L0 86.707L1.8457 85.9365L82.6484 52.1953L69.1865 19.9551L68.416 18.1094L70.2617 17.3389L109.939 0.770508L111.785 0L112.556 1.8457ZM73.6484 20.2588L87.1113 52.5L87.8818 54.3457L86.0361 55.1162L5.23242 88.8564L23.5859 132.81L104.39 99.0693L106.235 98.2988L107.006 100.144L120.468 132.384L156.454 117.357L109.636 5.23242L73.6484 20.2588Z" fill="#FF6600"/>
</svg>
